<svg width="48" height="48" viewBox="0 0 48 48" fill="none" xmlns="http://www.w3.org/2000/svg">
<path d="M2.61106 43.0903C2.76758 43.1311 2.93388 43.1086 3.07389 43.0276C3.21391 42.9466 3.31637 42.8137 3.35906 42.6577C4.61795 37.9607 9.73417 36.7433 12.7922 36.0149C13.5585 35.8328 14.1635 35.6886 14.5571 35.5187C18.0404 34.0068 19.1758 31.5745 19.5156 29.7999C19.5358 29.6943 19.5278 29.5853 19.4924 29.4838C19.457 29.3822 19.3954 29.2919 19.3139 29.2218C17.5002 27.6561 15.9699 25.3058 15.0044 22.6022C14.9772 22.5247 14.9343 22.4535 14.8785 22.3932C13.6013 21.0048 12.8679 19.5369 12.8679 18.3672C12.8679 17.684 13.1258 17.2257 13.7064 16.8798C13.7934 16.8278 13.866 16.755 13.9179 16.6679C13.9697 16.5809 13.9991 16.4823 14.0034 16.3811C14.2735 10.1551 18.7077 5.254 24.1466 5.22222L24.2774 5.23077C29.7432 5.30655 34.1493 10.3128 34.3069 16.6268C34.3092 16.7131 34.3297 16.7979 34.3672 16.8757C34.4047 16.9534 34.4583 17.0223 34.5245 17.0778C34.9071 17.4017 35.0855 17.8123 35.0855 18.3697C35.0855 19.3487 34.5636 20.5526 33.6176 21.7577C33.5725 21.8156 33.5378 21.881 33.5149 21.9508C32.5372 25.0503 30.7821 27.7869 28.7018 29.4613C28.6157 29.5309 28.5499 29.6226 28.5116 29.7265C28.4733 29.8304 28.4639 29.9428 28.4843 30.0517C28.8241 31.8251 29.9595 34.2561 33.4428 35.7704C33.8547 35.9489 34.4939 36.0882 35.3043 36.263C38.3317 36.9181 43.3978 38.0169 44.6408 42.6577C44.6617 42.7352 44.6976 42.8078 44.7466 42.8715C44.7955 42.9351 44.8565 42.9885 44.9261 43.0286C44.9957 43.0686 45.0724 43.0946 45.1521 43.105C45.2317 43.1154 45.3125 43.11 45.3901 43.0891C45.4676 43.0682 45.5402 43.0323 45.6039 42.9834C45.6675 42.9344 45.7209 42.8734 45.7609 42.8039C45.801 42.7343 45.827 42.6575 45.8374 42.5779C45.8478 42.4983 45.8424 42.4174 45.8215 42.3399C44.3854 36.978 38.6458 35.735 35.5634 35.0677C34.8484 34.9124 34.2312 34.7792 33.9305 34.6472C31.6572 33.6597 30.2565 32.1551 29.7615 30.1678C31.8723 28.3552 33.6384 25.5588 34.6479 22.4226C35.7198 21.0292 36.3089 19.5943 36.3089 18.3684C36.3089 17.5508 36.0449 16.8688 35.5218 16.3359C35.2309 9.48655 30.3433 4.09288 24.2774 4.00611L24.0953 4.00366C18.1394 4.03544 13.2309 9.28733 12.8019 16.0181C12.0368 16.5803 11.6482 17.3687 11.6482 18.3697C11.6482 19.8156 12.4658 21.545 13.8971 23.1314C14.8858 25.8484 16.4185 28.2354 18.2433 29.9062C17.7507 31.9009 16.3488 33.4103 14.0706 34.3991C13.7761 34.5274 13.1894 34.668 12.5098 34.8293C9.40417 35.5676 3.6255 36.9426 2.17839 42.3423C2.1366 42.4989 2.1587 42.6656 2.23984 42.8059C2.32097 42.9462 2.4545 43.0485 2.61106 43.0903Z" fill="#34547A"/>
</svg>
