<svg width="48" height="48" viewBox="0 0 48 48" fill="none" xmlns="http://www.w3.org/2000/svg">
<path d="M45.4211 25.8421C45.2675 25.8421 45.1202 25.9031 45.0117 26.0117C44.9031 26.1202 44.8421 26.2675 44.8421 26.4211V40.3158C44.8421 40.4693 44.7811 40.6166 44.6725 40.7252C44.564 40.8337 44.4167 40.8947 44.2632 40.8947H3.73684C3.5833 40.8947 3.43604 40.8337 3.32746 40.7252C3.21889 40.6166 3.15789 40.4693 3.15789 40.3158V26.4211C3.15789 26.2675 3.0969 26.1202 2.98833 26.0117C2.87975 25.9031 2.73249 25.8421 2.57895 25.8421C2.4254 25.8421 2.27814 25.9031 2.16957 26.0117C2.061 26.1202 2 26.2675 2 26.4211V40.3158C2 41.2734 2.77926 42.0526 3.73684 42.0526H44.2632C45.2207 42.0526 46 41.2734 46 40.3158V26.4211C46 26.2675 45.939 26.1202 45.8304 26.0117C45.7219 25.9031 45.5746 25.8421 45.4211 25.8421ZM31.5263 10.7895C31.6799 10.7895 31.8271 10.7285 31.9357 10.6199C32.0443 10.5113 32.1053 10.3641 32.1053 10.2105V6.73684C32.1053 5.77926 31.326 5 30.3684 5H17.6316C16.674 5 15.8947 5.77926 15.8947 6.73684V10.2105C15.8947 10.3641 15.9557 10.5113 16.0643 10.6199C16.1729 10.7285 16.3201 10.7895 16.4737 10.7895C16.6272 10.7895 16.7745 10.7285 16.8831 10.6199C16.9916 10.5113 17.0526 10.3641 17.0526 10.2105V6.73684C17.0526 6.5833 17.1136 6.43604 17.2222 6.32746C17.3308 6.21889 17.478 6.15789 17.6316 6.15789H30.3684C30.522 6.15789 30.6692 6.21889 30.7778 6.32746C30.8864 6.43604 30.9474 6.5833 30.9474 6.73684V10.2105C30.9474 10.3641 31.0084 10.5113 31.1169 10.6199C31.2255 10.7285 31.3728 10.7895 31.5263 10.7895Z" fill="#34547A"/>
<path d="M44.2632 13.1053H3.73684C2.77926 13.1053 2 13.8845 2 14.8421V20.583C2 23.7996 12.9491 28.1093 24.1447 28.1093C35.1945 28.1093 46 23.7996 46 20.583V14.8421C46 13.8845 45.2207 13.1053 44.2632 13.1053ZM44.8421 20.583C44.8421 22.6255 35.0498 26.9514 24.1447 26.9514C13.0868 26.9514 3.15789 22.6267 3.15789 20.583V14.8421C3.15789 14.6886 3.21889 14.5413 3.32746 14.4327C3.43604 14.3242 3.5833 14.2632 3.73684 14.2632H44.2632C44.4167 14.2632 44.564 14.3242 44.6725 14.4327C44.7811 14.5413 44.8421 14.6886 44.8421 14.8421V20.583ZM24.1447 31.6316C25.2366 31.6316 26.3714 31.5864 27.5188 31.4973C27.5946 31.4913 27.6685 31.4704 27.7363 31.4359C27.804 31.4013 27.8643 31.3538 27.9136 31.2959C27.963 31.2381 28.0004 31.1711 28.0239 31.0987C28.0474 31.0264 28.0563 30.9501 28.0503 30.8743C28.0459 30.798 28.026 30.7233 27.992 30.6548C27.9579 30.5863 27.9103 30.5254 27.8522 30.4758C27.794 30.4261 27.7263 30.3888 27.6533 30.3659C27.5803 30.3431 27.5035 30.3352 27.4274 30.3429C25.0954 30.5247 22.9012 30.5165 20.5738 30.3197C20.4235 30.3116 20.276 30.3624 20.1625 30.4612C20.049 30.5601 19.9785 30.6992 19.9658 30.8492C19.9532 30.9991 19.9994 31.1481 20.0948 31.2646C20.1901 31.381 20.327 31.4558 20.4765 31.473C21.7224 31.5783 22.9567 31.6316 24.1447 31.6316Z" fill="#34547A"/>
</svg>
