<svg width="48" height="48" viewBox="0 0 48 48" fill="none" xmlns="http://www.w3.org/2000/svg">
<path d="M2.04675 24.9185C2.5335 36.6211 12.1791 46 24 46C35.8209 46 45.4665 36.6211 45.9532 24.9185C45.9822 24.8448 45.998 24.7666 46 24.6875C46 24.638 45.9821 24.5954 45.9725 24.55C45.9766 24.3657 46 24.1856 46 24C46 11.8698 36.1302 2 24 2C11.8698 2 2 11.8698 2 24C2 24.1856 2.02337 24.3657 2.0275 24.55C2.01787 24.5954 2 24.638 2 24.6875C2 24.77 2.02063 24.8456 2.04675 24.9185ZM36.2664 33.2703C34.398 32.4947 32.4564 31.9092 30.4707 31.5226C30.688 29.5248 30.8159 27.4499 30.8558 25.3764H37.7032C37.5781 28.2006 37.0762 30.8668 36.2664 33.2703ZM39.0769 25.375H44.5549C44.3125 29.1186 43.0458 32.7236 40.8932 35.7961C39.8239 35.0436 38.6939 34.3814 37.5149 33.8161C38.4018 31.2462 38.9476 28.3945 39.0769 25.375ZM19.0349 32.6432C20.6773 32.3842 22.3373 32.2527 24 32.25C25.683 32.25 27.3454 32.3902 28.9638 32.6432C28.0095 39.9789 25.925 44.625 24 44.625C22.075 44.625 19.9905 39.9789 19.0349 32.6432ZM21.1235 44.163C17.3409 42.9502 14.1413 39.3904 12.2108 34.56C13.979 33.8204 15.817 33.2598 17.697 32.8866C18.3281 37.6936 19.4817 41.8819 21.1235 44.163ZM18.8768 16.7249C20.5718 16.9889 22.2845 17.1226 24 17.125C25.7155 17.1226 27.4282 16.9889 29.1232 16.7249C29.3597 18.9524 29.5 21.3834 29.5 24H18.5C18.5 21.3834 18.6403 18.9524 18.8768 16.7249ZM29.4794 25.375C29.4465 27.346 29.3273 29.3146 29.1219 31.2751C27.4273 31.011 25.715 30.8773 24 30.875C22.2845 30.8773 20.5718 31.0111 18.8768 31.2751C18.6707 29.3146 18.5515 27.346 18.5192 25.375H29.4794ZM30.3044 32.8866C32.2349 33.2744 34.076 33.8381 35.7906 34.56C33.8601 39.3904 30.6605 42.9502 26.8779 44.163C28.5183 41.8819 29.6719 37.6936 30.3044 32.8866ZM30.875 24C30.875 21.4755 30.7347 18.918 30.4707 16.4787C32.5057 16.0772 34.4527 15.4887 36.2664 14.7311C37.2069 17.521 37.75 20.6642 37.75 24H30.875ZM30.3044 15.1134C29.6719 10.3064 28.5196 6.11675 26.8765 3.837C30.6591 5.04975 33.8587 8.60962 35.7892 13.44C34.0217 14.1802 32.1841 14.7408 30.3044 15.1134ZM28.9651 15.3567C27.3454 15.6097 25.683 15.75 24 15.75C22.317 15.75 20.6546 15.6097 19.0349 15.3567C19.9905 8.02112 22.075 3.375 24 3.375C25.925 3.375 28.0095 8.02112 28.9651 15.3567ZM17.6956 15.1134C15.8156 14.74 13.9777 14.1794 12.2094 13.44C14.1399 8.60962 17.3395 5.04975 21.1221 3.837C19.4817 6.11813 18.3281 10.3064 17.6956 15.1134ZM17.5292 16.4787C17.2607 18.9768 17.1257 21.4875 17.125 24H10.25C10.25 20.6642 10.7931 17.521 11.7336 14.7298C13.5473 15.4888 15.4942 16.0759 17.5292 16.4787ZM17.1442 25.375C17.1841 27.4485 17.312 29.5234 17.5292 31.5226C15.4942 31.9241 13.5473 32.5126 11.7336 33.2703C10.9238 30.8668 10.4219 28.2006 10.2967 25.375H17.1442ZM10.4838 33.8161C9.30542 34.3819 8.1759 35.0441 7.10675 35.7961C4.95401 32.7237 3.68732 29.1187 3.44512 25.375H8.92312C9.05237 28.3945 9.59825 31.2462 10.4838 33.8161ZM7.93038 36.8975C8.89269 36.2198 9.90744 35.6198 10.965 35.1031C12.3455 38.52 14.3324 41.3566 16.7208 43.2747C13.2751 41.9695 10.2405 39.7679 7.93038 36.8975ZM31.2793 43.2734C33.669 41.3566 35.6545 38.5186 37.035 35.1017C38.1212 35.6297 39.1278 36.2375 40.0696 36.8961C37.7603 39.7674 34.7254 41.9691 31.2793 43.2734ZM39.125 24C39.125 20.4704 38.5365 17.1429 37.5162 14.1839C38.7262 13.6036 39.851 12.9367 40.8946 12.2039C43.3232 15.6579 44.626 19.7776 44.625 24H39.125ZM40.071 11.1025C39.1291 11.7611 38.1226 12.3689 37.0364 12.8969C35.6559 9.48 33.669 6.642 31.2806 4.72525C34.7259 6.03123 37.7603 8.23267 40.071 11.1025ZM16.7208 4.72663C14.331 6.64338 12.3455 9.48138 10.965 12.8983C9.90752 12.3809 8.89279 11.7805 7.93038 11.1025C10.2402 8.2321 13.275 6.03092 16.7208 4.72663ZM7.10675 12.2039C8.17571 12.9561 9.30526 13.6184 10.4838 14.1839C9.40838 17.3444 8.86475 20.6615 8.875 24H3.375C3.375 19.6137 4.76237 15.5506 7.10675 12.2039Z" fill="white"/>
</svg>
