<svg width="48" height="48" viewBox="0 0 48 48" fill="none" xmlns="http://www.w3.org/2000/svg">
<path d="M2.89188 9.79474C1.72251 10.9655 1.9724 12.6139 2.90293 13.5431C2.9402 13.579 6.67751 17.1492 11.9335 22.4052C11.9974 22.4698 12.0735 22.5211 12.1574 22.5561C12.2413 22.5912 12.3313 22.6092 12.4222 22.6092C12.5131 22.6092 12.6031 22.5912 12.687 22.5561C12.7709 22.5211 12.847 22.4698 12.911 22.4052C13.0404 22.2758 13.1131 22.1002 13.1131 21.9172C13.1131 21.7341 13.0404 21.5586 12.911 21.4291C12.1185 20.6367 11.3647 19.887 10.6495 19.1774L12.8433 16.9836C12.9691 16.8534 13.0386 16.679 13.0371 16.498C13.0355 16.317 12.9629 16.1439 12.8349 16.0159C12.7069 15.8879 12.5338 15.8153 12.3528 15.8137C12.1718 15.8122 11.9974 15.8817 11.8672 16.0075L9.66791 18.2068C8.60594 17.1582 7.54057 16.1131 6.4718 15.0714L11.4627 10.0805C11.5884 9.95033 11.658 9.77596 11.6565 9.59496C11.6549 9.41397 11.5823 9.24083 11.4543 9.11284C11.3263 8.98485 11.1532 8.91225 10.9722 8.91068C10.7912 8.90911 10.6168 8.97869 10.4866 9.10443L5.48052 14.1105C4.46439 13.1261 3.87902 12.567 3.86935 12.5573C3.57804 12.266 3.19561 11.4459 3.86935 10.7722L10.7724 3.86916C11.0389 3.59856 11.7485 3.06151 12.5271 3.83603C12.5617 3.87469 16.0477 7.83427 21.3686 13.1551C21.4988 13.2809 21.6731 13.3505 21.8541 13.3489C22.0351 13.3473 22.2083 13.2747 22.3362 13.1467C22.4642 13.0187 22.5368 12.8456 22.5384 12.6646C22.54 12.4836 22.4704 12.3092 22.3447 12.179C17.0569 6.8927 13.5971 2.96348 13.5336 2.89169C12.2469 1.60773 10.6951 1.99292 9.7963 2.89169L2.89188 9.79474ZM32.1718 35.336C32.0424 35.2066 31.8668 35.1339 31.6838 35.1339C31.5007 35.1339 31.3252 35.2066 31.1957 35.336L28.9992 37.5312C28.2973 36.8198 27.5932 36.1106 26.8869 35.4036C26.7567 35.2779 26.5823 35.2083 26.4013 35.2099C26.2203 35.2115 26.0472 35.2841 25.9192 35.4121C25.7912 35.54 25.7186 35.7132 25.717 35.8942C25.7154 36.0752 25.785 36.2495 25.9108 36.3797C28.8688 39.3303 31.7813 42.3261 34.6473 45.3661C35.1208 45.8411 35.7697 46.102 36.4738 46.102C37.1986 46.102 37.9317 45.819 38.3859 45.3634L45.2862 38.3816C46.1546 37.5132 46.2043 36.0401 45.3939 35.2269L36.1356 25.9699C36.0054 25.8442 35.831 25.7746 35.65 25.7762C35.469 25.7778 35.2959 25.8504 35.1679 25.9784C35.0399 26.1063 34.9673 26.2795 34.9657 26.4605C34.9641 26.6415 35.0337 26.8158 35.1595 26.946L44.4178 36.203C44.694 36.4791 44.6415 37.0756 44.3088 37.4083L37.4071 44.39C37.2483 44.5502 36.888 44.7214 36.4738 44.7214C36.2363 44.7214 35.8967 44.6634 35.6399 44.4052C35.6261 44.39 35.0476 43.7729 34.0439 42.7223L39.0749 37.6913C39.2006 37.5611 39.2702 37.3868 39.2686 37.2058C39.2671 37.0248 39.1945 36.8516 39.0665 36.7236C38.9385 36.5956 38.7653 36.523 38.5843 36.5215C38.4033 36.5199 38.229 36.5895 38.0988 36.7152L33.0886 41.7255C32.0538 40.6499 31.0137 39.5795 29.9684 38.5142L32.1718 36.3107C32.3008 36.1813 32.3733 36.0061 32.3733 35.8234C32.3733 35.6406 32.3008 35.4654 32.1718 35.336ZM2.19605 45.9432C2.28415 46.0332 2.39516 46.0973 2.51707 46.1287C2.63899 46.1601 2.76717 46.1575 2.88774 46.1213L16.6938 42.0085C16.8048 41.976 16.9055 41.9156 16.9865 41.8331L40.5811 18.0798C40.6143 18.0466 40.6308 18.0038 40.6557 17.9666L45.7032 12.9191C45.9038 12.7199 46.0631 12.483 46.1718 12.222C46.2804 11.961 46.3364 11.681 46.3364 11.3983C46.3364 11.1156 46.2804 10.8357 46.1718 10.5747C46.0631 10.3137 45.9038 10.0767 45.7032 9.87757L38.4757 2.65147C37.6639 1.83967 36.246 1.83967 35.4342 2.65147L30.2721 7.81356C30.239 7.8467 30.221 7.8895 30.1962 7.92815L6.56568 31.56C6.48844 31.6369 6.43069 31.7311 6.39725 31.8348L2.03452 45.2474C1.99527 45.3671 1.98958 45.4952 2.01806 45.6179C2.04654 45.7406 2.1081 45.8531 2.19605 45.9432ZM30.7995 9.27701L32.234 10.7115L10.8028 32.2006L8.41846 31.6594L30.7995 9.27701ZM11.6643 33.2927L33.2114 11.6889L36.5746 15.0521L14.8328 36.515H11.6643V33.2927ZM39.1163 17.5952L16.6897 40.1737L15.8931 37.4097L37.5507 16.0282L39.1163 17.5952ZM7.51278 32.8688L10.2837 33.4984V37.2053C10.2837 37.3884 10.3564 37.564 10.4858 37.6935C10.6153 37.8229 10.7909 37.8956 10.974 37.8956H14.5967L15.472 40.933L3.75338 44.4245L7.51278 32.8688ZM36.4117 3.62756C36.5582 3.48707 36.7533 3.40863 36.9563 3.40863C37.1593 3.40863 37.3545 3.48707 37.501 3.62756L44.7285 10.855C44.8005 10.9263 44.8578 11.0112 44.8968 11.1047C44.9358 11.1983 44.9558 11.2986 44.9556 11.4C44.9555 11.5013 44.9352 11.6017 44.896 11.6951C44.8568 11.7886 44.7993 11.8733 44.7271 11.9443L40.0731 16.5998L31.7576 8.28435L36.4117 3.62756Z" fill="white"/>
</svg>
