<svg width="48" height="48" viewBox="0 0 48 48" fill="none" xmlns="http://www.w3.org/2000/svg">
<path d="M35 4.29412C35.1717 4.29412 35.3362 4.22595 35.4576 4.1046C35.5789 3.98325 35.6471 3.81867 35.6471 3.64706C35.6471 3.47545 35.5789 3.31087 35.4576 3.18952C35.3362 3.06817 35.1717 3 35 3H13C12.8284 3 12.6638 3.06817 12.5425 3.18952C12.4212 3.31087 12.353 3.47545 12.353 3.64706C12.353 3.81867 12.4212 3.98325 12.5425 4.1046C12.6638 4.22595 12.8284 4.29412 13 4.29412H35ZM35 5.58824H10.4118C6.16322 5.58824 4.18322 7.09718 3.26957 8.36282C2.15146 9.91577 1.94181 11.9902 2.67946 14.2045C3.82087 17.6287 7.65663 21.7427 10.0145 23.57C10.1503 23.6754 10.3223 23.7225 10.4928 23.701C10.6633 23.6795 10.8183 23.5912 10.9236 23.4555C11.029 23.3197 11.0761 23.1477 11.0547 22.9772C11.0332 22.8067 10.9448 22.6517 10.8091 22.5464C8.64275 20.8692 4.95322 16.9273 3.90887 13.7942C3.30451 11.9864 3.45075 10.326 4.3204 9.11988C5.3751 7.65624 7.48063 6.88235 10.4118 6.88235H12.353V19.1765C12.353 27.8807 20.9886 32.8954 22.7525 33.8285C22.7232 33.9018 22.7074 33.9799 22.7059 34.0588V37.2941C22.7059 37.4657 22.7741 37.6303 22.8954 37.7517C23.0168 37.873 23.1814 37.9412 23.353 37.9412C23.5246 37.9412 23.6892 37.873 23.8105 37.7517C23.9319 37.6303 24 37.4657 24 37.2941V34.0588C23.9979 33.9862 23.9834 33.9144 23.9573 33.8466C25.9166 32.9252 35.6471 27.9118 35.6471 19.1765V6.88235H37.5883C40.5195 6.88235 42.625 7.65624 43.6797 9.11988C44.5493 10.326 44.6956 11.9864 44.0912 13.7955C43.2759 16.2427 39.2137 20.9818 37.191 22.5476C37.0552 22.653 36.9669 22.808 36.9454 22.9785C36.924 23.149 36.9711 23.321 37.0765 23.4568C37.1818 23.5925 37.3368 23.6808 37.5073 23.7023C37.6778 23.7238 37.8498 23.6767 37.9856 23.5713C40.227 21.8346 44.4057 16.9467 45.3206 14.2058C46.0583 11.9915 45.8486 9.91706 44.7305 8.36412C43.8169 7.09718 41.8369 5.58824 37.5883 5.58824H35ZM34.353 19.1765C34.353 27.0615 25.0975 31.864 23.3711 32.6909C21.7819 31.8304 13.6471 27.0395 13.6471 19.1765V6.88235H34.353V19.1765ZM16.2353 39.2353C14.7587 39.2353 13.6471 40.3482 13.6471 41.8235V43.7647C13.6471 43.9363 13.7153 44.1009 13.8366 44.2222C13.958 44.3436 14.1226 44.4118 14.2942 44.4118H32.4118C32.5834 44.4118 32.748 44.3436 32.8693 44.2222C32.9907 44.1009 33.0589 43.9363 33.0589 43.7647V41.9206C33.0589 40.4155 31.9213 39.2353 30.4706 39.2353H16.2353ZM31.7647 41.9206V43.1176H14.9412V41.8235C14.9412 41.0613 15.4731 40.5294 16.2353 40.5294H30.4706C31.2083 40.5294 31.7647 41.1273 31.7647 41.9206Z" fill="#34547A"/>
</svg>
