<svg width="48" height="48" viewBox="0 0 48 48" fill="none" xmlns="http://www.w3.org/2000/svg">
<path d="M2.89191 9.79472C1.72254 10.9655 1.97243 12.6139 2.90296 13.5431C2.94023 13.579 6.67754 17.1492 11.9335 22.4052C11.9975 22.4698 12.0736 22.5211 12.1575 22.5561C12.2414 22.5911 12.3314 22.6092 12.4223 22.6092C12.5132 22.6092 12.6032 22.5911 12.687 22.5561C12.7709 22.5211 12.8471 22.4698 12.911 22.4052C13.0404 22.2757 13.1131 22.1002 13.1131 21.9172C13.1131 21.7341 13.0404 21.5586 12.911 21.4291C12.1185 20.6366 11.3647 19.887 10.6496 19.1773L12.8433 16.9836C12.9691 16.8534 13.0387 16.679 13.0371 16.498C13.0355 16.317 12.9629 16.1439 12.8349 16.0159C12.7069 15.8879 12.5338 15.8153 12.3528 15.8137C12.1718 15.8121 11.9974 15.8817 11.8672 16.0075L9.66794 18.2068C8.60597 17.1582 7.5406 16.1131 6.47183 15.0714L11.4627 10.0805C11.5885 9.95031 11.6581 9.77594 11.6565 9.59495C11.6549 9.41395 11.5823 9.24081 11.4543 9.11283C11.3263 8.98484 11.1532 8.91224 10.9722 8.91067C10.7912 8.90909 10.6168 8.97867 10.4866 9.10442L5.48055 14.1105C4.46442 13.1261 3.87905 12.567 3.86938 12.5573C3.57807 12.266 3.19564 11.4459 3.86938 10.7722L10.7724 3.86915C11.0389 3.59855 11.7485 3.06149 12.5272 3.83601C12.5617 3.87467 16.0477 7.83426 21.3686 13.1551C21.4988 13.2809 21.6732 13.3504 21.8542 13.3489C22.0352 13.3473 22.2083 13.2747 22.3363 13.1467C22.4643 13.0187 22.5369 12.8456 22.5384 12.6646C22.54 12.4836 22.4704 12.3092 22.3447 12.179C17.057 6.89268 13.5972 2.96347 13.5336 2.89168C12.2469 1.60771 10.6951 1.9929 9.79634 2.89168L2.89191 9.79472ZM32.1719 35.336C32.0424 35.2066 31.8669 35.1339 31.6838 35.1339C31.5008 35.1339 31.3252 35.2066 31.1958 35.336L28.9992 37.5312C28.2973 36.8198 27.5932 36.1106 26.8869 35.4036C26.7567 35.2779 26.5823 35.2083 26.4013 35.2099C26.2203 35.2115 26.0472 35.2841 25.9192 35.412C25.7912 35.54 25.7186 35.7132 25.7171 35.8942C25.7155 36.0752 25.7851 36.2495 25.9108 36.3797C28.8688 39.3303 31.7813 42.3261 34.6473 45.3661C35.1208 45.841 35.7697 46.102 36.4738 46.102C37.1987 46.102 37.9318 45.8189 38.386 45.3633L45.2863 38.3816C46.1547 37.5132 46.2044 36.0401 45.3939 35.2269L36.1356 25.9699C36.0054 25.8442 35.831 25.7746 35.65 25.7762C35.469 25.7778 35.2959 25.8504 35.1679 25.9783C35.0399 26.1063 34.9673 26.2795 34.9657 26.4605C34.9642 26.6415 35.0338 26.8158 35.1595 26.946L44.4179 36.203C44.694 36.4791 44.6415 37.0755 44.3088 37.4083L37.4071 44.39C37.2484 44.5502 36.888 44.7214 36.4738 44.7214C36.2364 44.7214 35.8967 44.6634 35.6399 44.4052C35.6261 44.39 35.0477 43.7729 34.044 42.7222L39.0749 37.6913C39.2006 37.5611 39.2702 37.3867 39.2687 37.2057C39.2671 37.0247 39.1945 36.8516 39.0665 36.7236C38.9385 36.5956 38.7654 36.523 38.5844 36.5215C38.4034 36.5199 38.229 36.5895 38.0988 36.7152L33.0886 41.7254C32.0538 40.6499 31.0137 39.5794 29.9684 38.5141L32.1719 36.3107C32.3009 36.1813 32.3733 36.006 32.3733 35.8233C32.3733 35.6406 32.3009 35.4654 32.1719 35.336ZM2.19608 45.9432C2.28418 46.0331 2.39519 46.0973 2.5171 46.1287C2.63902 46.1601 2.7672 46.1575 2.88777 46.1213L16.6939 42.0085C16.8048 41.976 16.9056 41.9156 16.9865 41.8331L40.5811 18.0798C40.6143 18.0466 40.6309 18.0038 40.6557 17.9665L45.7032 12.919C45.9039 12.7199 46.0631 12.483 46.1718 12.222C46.2805 11.961 46.3364 11.681 46.3364 11.3983C46.3364 11.1156 46.2805 10.8356 46.1718 10.5746C46.0631 10.3136 45.9039 10.0767 45.7032 9.87756L38.4757 2.65145C37.6639 1.83965 36.246 1.83965 35.4342 2.65145L30.2721 7.81355C30.239 7.84668 30.2211 7.88948 30.1962 7.92814L6.56571 31.56C6.48847 31.6369 6.43072 31.7311 6.39728 31.8348L2.03455 45.2474C1.9953 45.367 1.98961 45.4952 2.01809 45.6179C2.04657 45.7405 2.10813 45.8531 2.19608 45.9432ZM30.7995 9.27699L32.234 10.7114L10.8028 32.2006L8.41849 31.6594L30.7995 9.27699ZM11.6643 33.2927L33.2115 11.6889L36.5746 15.0521L14.8328 36.515H11.6643V33.2927ZM39.1163 17.5952L16.6897 40.1736L15.8931 37.4097L37.5507 16.0282L39.1163 17.5952ZM7.51281 32.8688L10.2837 33.4984V37.2053C10.2837 37.3884 10.3564 37.564 10.4859 37.6934C10.6153 37.8229 10.7909 37.8956 10.974 37.8956H14.5967L15.472 40.933L3.75341 44.4245L7.51281 32.8688ZM36.4117 3.62754C36.5582 3.48705 36.7534 3.40861 36.9564 3.40861C37.1594 3.40861 37.3545 3.48705 37.501 3.62754L44.7285 10.855C44.8006 10.9263 44.8578 11.0111 44.8968 11.1047C44.9358 11.1982 44.9558 11.2986 44.9557 11.4C44.9555 11.5013 44.9353 11.6016 44.896 11.6951C44.8568 11.7885 44.7994 11.8733 44.7271 11.9443L40.0731 16.5997L31.7577 8.28433L36.4117 3.62754Z" fill="#34547A"/>
</svg>
