<svg width="48" height="48" viewBox="0 0 48 48" fill="none" xmlns="http://www.w3.org/2000/svg">
<path d="M2.61112 43.0903C2.76764 43.1311 2.93394 43.1086 3.07396 43.0276C3.21397 42.9466 3.31643 42.8137 3.35912 42.6577C4.61801 37.9607 9.73423 36.7433 12.7922 36.0149C13.5586 35.8328 14.1636 35.6886 14.5571 35.5187C18.0405 34.0068 19.1759 31.5745 19.5157 29.7999C19.5359 29.6943 19.5279 29.5853 19.4925 29.4838C19.4571 29.3822 19.3955 29.2919 19.314 29.2218C17.5002 27.6561 15.97 25.3058 15.0045 22.6022C14.9772 22.5247 14.9344 22.4535 14.8786 22.3932C13.6013 21.0048 12.868 19.5369 12.868 18.3672C12.868 17.684 13.1259 17.2257 13.7065 16.8798C13.7934 16.8278 13.8661 16.755 13.9179 16.6679C13.9698 16.5809 13.9992 16.4823 14.0035 16.3811C14.2736 10.1551 18.7078 5.254 24.1467 5.22222L24.2775 5.23077C29.7432 5.30655 34.1493 10.3128 34.307 16.6268C34.3092 16.7131 34.3298 16.7979 34.3673 16.8757C34.4048 16.9534 34.4584 17.0223 34.5246 17.0778C34.9071 17.4017 35.0856 17.8123 35.0856 18.3697C35.0856 19.3487 34.5637 20.5526 33.6177 21.7577C33.5726 21.8156 33.5379 21.881 33.515 21.9508C32.5372 25.0503 30.7821 27.7869 28.7019 29.4613C28.6157 29.5309 28.55 29.6226 28.5117 29.7265C28.4734 29.8304 28.4639 29.9428 28.4843 30.0517C28.8241 31.8251 29.9596 34.2561 33.4429 35.7704C33.8548 35.9489 34.494 36.0882 35.3043 36.263C38.3318 36.9181 43.3979 38.0169 44.6409 42.6577C44.6618 42.7352 44.6977 42.8078 44.7466 42.8715C44.7956 42.9351 44.8566 42.9885 44.9262 43.0286C44.9957 43.0686 45.0725 43.0946 45.1521 43.105C45.2317 43.1154 45.3126 43.11 45.3901 43.0891C45.4676 43.0682 45.5403 43.0323 45.6039 42.9834C45.6676 42.9344 45.7209 42.8734 45.761 42.8039C45.8011 42.7343 45.827 42.6575 45.8374 42.5779C45.8478 42.4983 45.8424 42.4174 45.8216 42.3399C44.3855 36.978 38.6459 35.735 35.5635 35.0677C34.8485 34.9124 34.2312 34.7792 33.9306 34.6472C31.6572 33.6597 30.2566 32.1551 29.7616 30.1678C31.8723 28.3552 33.6385 25.5588 34.648 22.4226C35.7199 21.0292 36.309 19.5943 36.309 18.3684C36.309 17.5508 36.045 16.8688 35.5219 16.3359C35.231 9.48655 30.3433 4.09288 24.2775 4.00611L24.0953 4.00366C18.1395 4.03544 13.231 9.28733 12.802 16.0181C12.0369 16.5803 11.6482 17.3687 11.6482 18.3697C11.6482 19.8156 12.4659 21.545 13.8971 23.1314C14.8859 25.8484 16.4186 28.2354 18.2433 29.9062C17.7508 31.9009 16.3489 33.4103 14.0707 34.3991C13.7761 34.5274 13.1895 34.668 12.5099 34.8293C9.40423 35.5676 3.62556 36.9426 2.17845 42.3423C2.13666 42.4989 2.15876 42.6656 2.2399 42.8059C2.32104 42.9462 2.45456 43.0485 2.61112 43.0903Z" fill="white"/>
</svg>
