<svg width="48" height="48" viewBox="0 0 48 48" fill="none" xmlns="http://www.w3.org/2000/svg">
<path d="M24 2C11.422 2 5.41096 9.09728 5.16044 9.39962C5.05697 9.52629 5.00031 9.6847 5 9.84821V23.9865C5 35.9452 16.0144 43.0453 20.7489 45.5427C20.9128 45.6186 21.0997 45.6287 21.2709 45.5709C21.4421 45.5132 21.5845 45.3919 21.6689 45.2323C21.7532 45.0726 21.7729 44.8867 21.7241 44.7129C21.6752 44.5391 21.5614 44.3906 21.4061 44.2982C15.8047 41.3437 6.40741 34.7766 6.40741 23.9851V10.1154C7.39541 9.05369 12.9265 3.65092 23.2963 3.41468V46.2965C23.2962 46.4393 23.3397 46.5788 23.4209 46.6964C23.5022 46.8139 23.6173 46.904 23.751 46.9545C23.8847 47.0051 24.0307 47.0137 24.1695 46.9793C24.3082 46.9449 24.4332 46.8691 24.5278 46.7619C26.8317 45.772 43 38.3034 43 23.7967V9.73431C43 9.5705 42.9427 9.41185 42.8381 9.28572C42.6299 9.034 37.611 3.13343 27.1582 2.08016C26.973 2.06355 26.7886 2.12001 26.6444 2.23748C26.5003 2.35494 26.4079 2.52409 26.387 2.70874C26.3776 2.80062 26.3865 2.89343 26.413 2.98189C26.4396 3.07034 26.4833 3.1527 26.5418 3.22426C26.6002 3.29582 26.6721 3.35518 26.7535 3.39895C26.8349 3.44272 26.9241 3.47005 27.0161 3.47936C35.8644 4.37092 40.6721 9.02697 41.5926 10.0043V23.7967C41.5926 36.3853 28.415 43.4123 24.7037 45.142V2.70312C24.7037 2.51664 24.6296 2.3378 24.4976 2.20594C24.3656 2.07408 24.1866 2 24 2Z" fill="#34547A"/>
</svg>
