<svg width="1920" height="320" viewBox="0 0 1920 320" fill="none" xmlns="http://www.w3.org/2000/svg">
<path d="M652.333 157.942V153.764H647.165V147.27L646.991 147.323L642.136 148.814L642.04 148.844V153.765H634.378V151.023C634.378 149.747 634.662 148.77 635.223 148.118C635.779 147.475 636.575 147.147 637.59 147.147C638.32 147.147 639.076 147.32 639.837 147.66L640.027 147.746V143.346L639.938 143.313C639.228 143.057 638.263 142.928 637.067 142.928C635.559 142.928 634.19 143.258 632.995 143.91C631.8 144.564 630.859 145.497 630.201 146.683C629.544 147.868 629.211 149.236 629.211 150.75V153.764H625.612V157.942H629.211V175.542H634.378V157.942H642.04V169.126C642.04 173.732 644.205 176.067 648.474 176.067C649.175 176.067 649.914 175.984 650.668 175.823C651.435 175.657 651.958 175.491 652.265 175.314L652.333 175.274V171.057L652.123 171.197C651.843 171.384 651.494 171.538 651.084 171.652C650.673 171.768 650.33 171.826 650.064 171.826C649.064 171.826 648.324 171.555 647.865 171.022C647.4 170.483 647.165 169.541 647.165 168.223V157.942H652.333ZM614.075 171.827C612.199 171.827 610.721 171.202 609.679 169.973C608.631 168.737 608.099 166.976 608.099 164.738C608.099 162.428 608.631 160.621 609.679 159.364C610.722 158.115 612.186 157.481 614.032 157.481C615.824 157.481 617.25 158.086 618.272 159.281C619.298 160.483 619.819 162.275 619.819 164.612C619.819 166.976 619.329 168.793 618.363 170.008C617.404 171.214 615.961 171.827 614.075 171.827ZM614.304 153.24C610.727 153.24 607.885 154.292 605.859 156.367C603.834 158.443 602.808 161.315 602.808 164.905C602.808 168.314 603.81 171.057 605.786 173.055C607.763 175.054 610.453 176.066 613.781 176.066C617.249 176.066 620.034 174.999 622.059 172.895C624.084 170.794 625.11 167.949 625.11 164.443C625.11 160.98 624.148 158.217 622.248 156.232C620.348 154.246 617.674 153.24 614.304 153.24ZM594.478 153.24C592.044 153.24 590.031 153.865 588.493 155.096C586.946 156.336 586.161 157.961 586.161 159.928C586.161 160.95 586.33 161.858 586.664 162.629C586.999 163.401 587.518 164.082 588.208 164.653C588.892 165.219 589.948 165.813 591.348 166.416C592.525 166.902 593.402 167.313 593.96 167.637C594.505 167.955 594.891 168.274 595.11 168.585C595.322 168.889 595.43 169.306 595.43 169.82C595.43 171.283 594.338 171.995 592.092 171.995C591.259 171.995 590.309 171.82 589.268 171.476C588.234 171.137 587.258 170.64 586.375 170.004L586.161 169.849V174.842L586.239 174.879C586.97 175.217 587.892 175.503 588.978 175.728C590.063 175.953 591.048 176.067 591.904 176.067C594.544 176.067 596.671 175.439 598.223 174.2C599.784 172.952 600.576 171.289 600.576 169.254C600.576 167.786 600.15 166.527 599.31 165.512C598.476 164.505 597.028 163.58 595.009 162.763C593.401 162.115 592.37 161.577 591.945 161.164C591.535 160.765 591.327 160.201 591.327 159.487C591.327 158.854 591.584 158.346 592.111 157.935C592.643 157.522 593.382 157.312 594.31 157.312C595.171 157.312 596.052 157.449 596.928 157.716C597.803 157.984 598.572 158.342 599.213 158.78L599.424 158.925V154.189L599.343 154.154C598.751 153.899 597.971 153.681 597.022 153.504C596.078 153.328 595.222 153.24 594.478 153.24ZM572.692 171.827C570.817 171.827 569.338 171.202 568.297 169.973C567.248 168.737 566.718 166.976 566.718 164.738C566.718 162.428 567.249 160.621 568.298 159.364C569.34 158.115 570.804 157.481 572.651 157.481C574.442 157.481 575.868 158.086 576.889 159.281C577.916 160.483 578.437 162.275 578.437 164.612C578.437 166.976 577.947 168.793 576.981 170.008C576.021 171.214 574.579 171.827 572.692 171.827ZM572.923 153.24C569.344 153.24 566.502 154.292 564.477 156.367C562.452 158.443 561.425 161.315 561.425 164.905C561.425 168.316 562.428 171.057 564.405 173.055C566.381 175.054 569.071 176.066 572.399 176.066C575.867 176.066 578.652 174.999 580.678 172.895C582.702 170.794 583.729 167.949 583.729 164.443C583.729 160.98 582.766 158.217 580.866 156.232C578.965 154.246 576.292 153.24 572.923 153.24ZM553.583 157.536V153.764H548.479V175.541H553.583V164.401C553.583 162.507 554.01 160.951 554.855 159.776C555.688 158.614 556.799 158.026 558.155 158.026C558.615 158.026 559.131 158.102 559.69 158.252C560.243 158.402 560.644 158.565 560.88 158.735L561.095 158.892V153.727L561.012 153.692C560.537 153.489 559.864 153.387 559.013 153.387C557.731 153.387 556.583 153.8 555.6 154.615C554.737 155.33 554.114 156.312 553.637 157.536H553.583ZM539.339 153.24C536.998 153.24 534.91 153.744 533.133 154.737C531.353 155.733 529.977 157.154 529.04 158.962C528.108 160.765 527.634 162.871 527.634 165.22C527.634 167.278 528.093 169.166 529 170.83C529.908 172.497 531.193 173.801 532.819 174.706C534.444 175.609 536.321 176.067 538.399 176.067C540.824 176.067 542.895 175.58 544.555 174.62L544.622 174.582V169.889L544.408 170.046C543.656 170.596 542.815 171.035 541.911 171.351C541.009 171.667 540.187 171.827 539.466 171.827C537.463 171.827 535.855 171.198 534.689 169.958C533.519 168.716 532.926 166.973 532.926 164.779C532.926 162.571 533.545 160.783 534.763 159.463C535.978 158.148 537.589 157.481 539.55 157.481C541.227 157.481 542.862 158.051 544.408 159.177L544.622 159.333V154.388L544.553 154.349C543.971 154.022 543.178 153.752 542.192 153.547C541.211 153.343 540.251 153.24 539.339 153.24ZM524.119 153.765H519.016V175.541H524.119V153.765ZM521.62 144.488C520.78 144.488 520.047 144.775 519.445 145.343C518.841 145.914 518.534 146.632 518.534 147.479C518.534 148.313 518.837 149.018 519.436 149.574C520.031 150.127 520.766 150.408 521.62 150.408C522.474 150.408 523.212 150.127 523.814 149.575C524.419 149.018 524.727 148.314 524.727 147.479C524.727 146.661 524.428 145.951 523.839 145.366C523.25 144.783 522.503 144.488 521.62 144.488ZM508.886 152.158V175.541H514.094V145.154H506.886L497.723 167.725L488.831 145.154H481.329V175.541H486.224V152.156H486.392L495.781 175.541H499.475L508.718 152.158H508.886Z" fill="#706D6E"/>
<path d="M439.675 159.098H415.667V135H439.675V159.098Z" fill="#F1511B"/>
<path d="M466.183 159.098H442.175V135H466.183V159.098Z" fill="#80CC28"/>
<path d="M439.675 185.714H415.667V161.616H439.675V185.714Z" fill="#00ADEF"/>
<path d="M466.183 185.714H442.175V161.616H466.183V185.714Z" fill="#FBBC09"/>
<path d="M723 122V127.2H759.983V122H723ZM765.223 122V127.2H817.926C817.926 127.2 812.542 122 805.412 122H765.223ZM828.264 122V127.2H860.149L858.256 122H828.264ZM883.008 122L881.116 127.2H912.71V122H883.008ZM723 132.112V137.312H759.983V132.112H723ZM765.223 132.12V137.312H824.041C824.041 137.312 823.354 133.31 822.156 132.12H765.223ZM828.264 132.12V137.312H863.644L861.893 132.12H828.264ZM879.223 132.12L877.471 137.312H912.71V132.12H879.223ZM733.628 142.224V147.432H749.644V142.224H733.628ZM775.851 142.224V147.432H791.868V142.224H775.851ZM807.446 142.224V147.432H823.463C823.463 147.432 824.479 144.682 824.479 142.224H807.446ZM838.893 142.224V147.432H867.289L865.396 142.224H838.893ZM875.735 142.224L873.835 147.432H902.372V142.224H875.735ZM733.628 152.344V157.544H749.644V152.344H733.628ZM775.851 152.344V157.544H816.76C816.76 157.544 820.183 154.876 821.273 152.344H775.851ZM838.893 152.344V157.544H854.909V154.649L855.926 157.544H885.265L886.356 154.649V157.544H902.372V152.344H872.306L870.71 156.748L869.107 152.344H838.893ZM733.628 162.456V167.656H749.644V162.456H733.628ZM775.851 162.456V167.656H821.273C820.183 165.133 816.76 162.456 816.76 162.456H775.851ZM838.893 162.456V167.656H854.909V162.456H838.893ZM857.818 162.456L859.755 167.656H881.754L883.594 162.456H857.818ZM886.355 162.456V167.656H902.372V162.456H886.355ZM733.628 172.568V177.768H749.644V172.568H733.628ZM775.851 172.568V177.768H791.868V172.568H775.851ZM807.446 172.568V177.768H824.479C824.479 175.314 823.462 172.568 823.462 172.568H807.446ZM838.893 172.568V177.768H854.909V172.568H838.893ZM861.455 172.568L863.333 177.768H878.08L879.973 172.568H861.455ZM886.355 172.568V177.768H902.372V172.568H886.355ZM723.289 182.681V187.888H760.272V182.681H723.289ZM765.223 182.681V187.888H822.156C823.354 186.696 824.041 182.681 824.041 182.681H765.223ZM828.554 182.681V187.888H854.909V182.681H828.554ZM865.099 182.681L867.029 187.888H874.532L876.343 182.681H865.099ZM886.355 182.681V187.888H913V182.681H886.355ZM723.289 192.8V198H760.272V192.8H723.289ZM765.223 192.8V197.993H805.412C812.542 197.993 817.926 192.8 817.926 192.8H765.223ZM828.554 192.8V198H854.909V192.8H828.554ZM868.758 192.8L870.614 197.985L870.933 197.993L872.818 192.8H868.758ZM886.355 192.8V198H913V192.8H886.355Z" fill="#1F70C1"/>
<path fill-rule="evenodd" clip-rule="evenodd" d="M1128.96 178.62C1115.99 188.209 1097.13 193.318 1080.86 193.318C1058.06 193.318 1037.63 184.908 1022.07 170.918C1020.89 169.818 1021.91 168.324 1023.4 169.189C1040.14 178.935 1060.82 184.751 1082.19 184.751C1096.58 184.751 1112.45 181.764 1127.07 175.555C1129.27 174.691 1131.08 177.049 1128.96 178.62Z" fill="#FF9900"/>
<path fill-rule="evenodd" clip-rule="evenodd" d="M1134.38 172.411C1132.73 170.289 1123.38 171.389 1119.21 171.94C1117.96 172.097 1117.72 170.996 1118.9 170.21C1126.36 164.945 1138.55 166.516 1139.96 168.246C1141.38 169.975 1139.57 182.236 1132.57 188.052C1131.47 188.916 1130.45 188.445 1130.92 187.266C1132.5 183.336 1136.03 174.612 1134.38 172.411Z" fill="#FF9900"/>
<path fill-rule="evenodd" clip-rule="evenodd" d="M1119.45 133.27V128.161C1119.45 127.375 1120 126.904 1120.71 126.904H1143.5C1144.21 126.904 1144.84 127.454 1144.84 128.161V132.484C1144.84 133.192 1144.21 134.135 1143.11 135.707L1131.32 152.526C1135.72 152.448 1140.36 153.076 1144.28 155.277C1145.15 155.749 1145.39 156.535 1145.46 157.242V162.665C1145.46 163.451 1144.68 164.316 1143.81 163.844C1136.82 160.15 1127.47 159.757 1119.76 163.923C1118.98 164.316 1118.11 163.53 1118.11 162.744V157.556C1118.11 156.77 1118.11 155.356 1118.98 154.098L1132.65 134.528H1120.78C1120.08 134.528 1119.45 133.978 1119.45 133.27ZM1036.37 164.945H1029.46C1028.83 164.866 1028.28 164.394 1028.2 163.766V128.24C1028.2 127.533 1028.83 126.982 1029.53 126.982H1035.98C1036.69 126.982 1037.16 127.533 1037.24 128.161V132.799H1037.39C1039.04 128.319 1042.27 126.196 1046.51 126.196C1050.83 126.196 1053.58 128.319 1055.47 132.799C1057.12 128.319 1060.97 126.196 1065.06 126.196C1067.97 126.196 1071.11 127.375 1073.08 130.126C1075.28 133.113 1074.81 137.436 1074.81 141.287V163.766C1074.81 164.473 1074.18 165.023 1073.47 165.023H1066.63C1065.92 164.945 1065.37 164.394 1065.37 163.766V144.902C1065.37 143.409 1065.53 139.636 1065.22 138.222C1064.67 135.864 1063.17 135.156 1061.13 135.156C1059.48 135.156 1057.67 136.257 1056.96 138.065C1056.26 139.872 1056.34 142.859 1056.34 144.902V163.766C1056.34 164.473 1055.71 165.023 1055 165.023H1048.08C1047.38 164.945 1046.83 164.394 1046.83 163.766V144.902C1046.83 140.973 1047.45 135.078 1042.58 135.078C1037.63 135.078 1037.79 140.737 1037.79 144.902V163.766C1037.71 164.394 1037.16 164.945 1036.37 164.945ZM1164.48 126.196C1174.78 126.196 1180.36 134.999 1180.36 146.239C1180.36 157.085 1174.23 165.73 1164.48 165.73C1154.42 165.73 1148.92 156.928 1148.92 145.924C1148.84 134.842 1154.42 126.196 1164.48 126.196ZM1164.48 133.506C1159.38 133.506 1159.06 140.501 1159.06 144.824C1159.06 149.147 1158.98 158.421 1164.41 158.421C1169.75 158.421 1170.06 150.954 1170.06 146.396C1170.06 143.409 1169.91 139.794 1169.04 136.964C1168.26 134.449 1166.68 133.506 1164.48 133.506ZM1193.64 164.945H1186.73C1186.02 164.866 1185.47 164.316 1185.47 163.687V128.083C1185.55 127.454 1186.1 126.904 1186.81 126.904H1193.25C1193.88 126.904 1194.35 127.375 1194.51 127.926V133.349H1194.67C1196.63 128.476 1199.3 126.196 1204.1 126.196C1207.16 126.196 1210.23 127.297 1212.19 130.362C1214 133.192 1214 137.986 1214 141.444V163.844C1213.92 164.473 1213.37 164.945 1212.66 164.945H1205.75C1205.12 164.866 1204.57 164.394 1204.49 163.844V144.509C1204.49 140.58 1204.96 134.921 1200.17 134.921C1198.52 134.921 1196.94 136.021 1196.16 137.75C1195.22 139.951 1195.06 142.073 1195.06 144.509V163.687C1194.98 164.394 1194.35 164.945 1193.64 164.945ZM1101.29 147.968C1101.29 150.64 1101.37 152.919 1100.04 155.356C1098.93 157.321 1097.21 158.5 1095.24 158.5C1092.57 158.5 1091 156.456 1091 153.469C1091 147.575 1096.26 146.474 1101.29 146.474V147.968ZM1108.29 164.866C1107.82 165.259 1107.19 165.338 1106.64 165.023C1104.36 163.137 1103.89 162.194 1102.63 160.386C1098.86 164.237 1096.11 165.416 1091.23 165.416C1085.42 165.416 1080.86 161.801 1080.86 154.648C1080.86 148.989 1083.92 145.217 1088.25 143.33C1092.02 141.68 1097.28 141.366 1101.29 140.894V140.029C1101.29 138.379 1101.45 136.414 1100.43 134.999C1099.56 133.742 1097.99 133.192 1096.58 133.192C1093.9 133.192 1091.55 134.528 1091 137.357C1090.84 137.986 1090.45 138.615 1089.82 138.615L1083.14 137.907C1082.59 137.75 1081.96 137.357 1082.12 136.493C1083.69 128.319 1091 125.882 1097.6 125.882C1100.98 125.882 1105.38 126.747 1108.05 129.34C1111.43 132.484 1111.12 136.728 1111.12 141.287V152.055C1111.12 155.277 1112.45 156.692 1113.71 158.5C1114.18 159.128 1114.26 159.914 1113.71 160.307C1112.22 161.486 1109.7 163.687 1108.29 164.866ZM1010.51 147.968C1010.51 150.64 1010.59 152.919 1009.26 155.356C1008.16 157.321 1006.43 158.5 1004.46 158.5C1001.79 158.5 1000.22 156.456 1000.22 153.469C1000.22 147.575 1005.48 146.474 1010.51 146.474V147.968ZM1017.43 164.866C1016.96 165.259 1016.33 165.338 1015.78 165.023C1013.5 163.137 1013.03 162.194 1011.77 160.386C1008 164.237 1005.25 165.416 1000.37 165.416C994.559 165.416 990 161.801 990 154.648C990 148.989 993.065 145.217 997.388 143.33C1001.16 141.68 1006.43 141.366 1010.44 140.894V140.029C1010.44 138.379 1010.59 136.414 1009.57 134.999C1008.71 133.742 1007.13 133.192 1005.72 133.192C1003.05 133.192 1000.69 134.528 1000.14 137.357C999.982 137.986 999.589 138.615 998.96 138.615L992.279 137.907C991.729 137.75 991.1 137.357 991.258 136.493C992.829 128.319 1000.14 125.882 1006.74 125.882C1010.12 125.882 1014.52 126.747 1017.19 129.34C1020.57 132.484 1020.26 136.728 1020.26 141.287V152.055C1020.26 155.277 1021.6 156.692 1022.85 158.5C1023.32 159.128 1023.4 159.914 1022.85 160.307C1021.36 161.486 1018.84 163.687 1017.43 164.866Z" fill="black"/>
<path fill-rule="evenodd" clip-rule="evenodd" d="M1386.05 202.568C1396.07 211.797 1409.52 217.395 1424.15 217.395C1455.57 217.395 1481 191.767 1481 160.246C1481 128.629 1455.57 103 1424.15 103C1409.52 103 1396.07 108.597 1386.05 117.827C1374.56 128.333 1367.29 143.455 1367.29 160.246C1367.29 177.037 1374.56 192.16 1386.05 202.568Z" fill="#E9B040"/>
<path fill-rule="evenodd" clip-rule="evenodd" d="M1473.44 192.06C1473.44 191.078 1474.23 190.293 1475.21 190.293C1476.29 190.293 1477.07 191.079 1477.07 192.06C1477.07 193.142 1476.29 193.927 1475.21 193.927C1474.23 193.927 1473.44 193.142 1473.44 192.06ZM1475.21 193.535C1475.99 193.535 1476.68 192.846 1476.68 192.062C1476.68 191.277 1475.99 190.688 1475.21 190.688C1474.52 190.688 1473.83 191.277 1473.83 192.062C1473.83 192.846 1474.52 193.535 1475.21 193.535ZM1475.01 192.946H1474.62V191.276H1475.31C1475.41 191.276 1475.6 191.276 1475.7 191.375C1475.9 191.472 1475.9 191.572 1475.9 191.768C1475.9 191.965 1475.8 192.161 1475.6 192.161L1475.99 192.947H1475.5L1475.31 192.258H1475.01V192.946V191.963H1475.41C1475.5 191.963 1475.5 191.864 1475.5 191.767C1475.5 191.668 1475.5 191.668 1475.41 191.57H1475.01V192.946Z" fill="#E9B040"/>
<path fill-rule="evenodd" clip-rule="evenodd" d="M1404.41 154.159C1404.22 152.097 1403.82 150.134 1403.43 148.071H1368.67C1369.06 146.009 1369.65 144.046 1370.24 142.081H1401.76C1401.08 140.014 1400.29 137.982 1399.4 135.993H1372.7C1373.68 133.913 1374.76 131.882 1375.94 129.905H1396.07C1394.77 127.808 1393.33 125.806 1391.75 123.915H1380.26C1382.03 121.745 1383.97 119.71 1386.05 117.827C1375.94 108.695 1362.58 103 1347.85 103C1316.53 103 1291 128.629 1291 160.246C1291 191.767 1316.53 217.395 1347.85 217.395C1362.58 217.395 1375.94 211.797 1386.05 202.568C1388.1 200.718 1390 198.715 1391.75 196.577H1380.26C1378.69 194.613 1377.31 192.65 1375.94 190.489H1396.07C1397.33 188.547 1398.45 186.512 1399.41 184.401H1372.7C1371.81 182.437 1370.93 180.474 1370.24 178.41H1401.76C1402.45 176.446 1402.94 174.386 1403.43 172.322C1403.82 170.358 1404.21 168.298 1404.41 166.234C1404.61 164.243 1404.71 162.243 1404.71 160.243C1404.71 158.184 1404.61 156.123 1404.41 154.159Z" fill="#CC2131"/>
<path fill-rule="evenodd" clip-rule="evenodd" d="M1473.44 173.503C1473.44 172.423 1474.23 171.639 1475.21 171.639C1476.29 171.639 1477.07 172.425 1477.07 173.503C1477.07 174.485 1476.29 175.369 1475.21 175.369C1474.23 175.369 1473.44 174.484 1473.44 173.503ZM1475.21 174.877C1475.99 174.877 1476.68 174.287 1476.68 173.503C1476.68 172.718 1475.99 172.129 1475.21 172.129C1474.52 172.129 1473.83 172.718 1473.83 173.503C1473.83 174.287 1474.52 174.877 1475.21 174.877ZM1475.01 174.287H1474.62V172.717H1475.7C1475.9 172.816 1475.9 173.013 1475.9 173.209C1475.9 173.306 1475.8 173.503 1475.6 173.602L1475.99 174.289H1475.5L1475.31 173.699H1475.01V174.287V173.405H1475.21C1475.31 173.405 1475.41 173.405 1475.41 173.305C1475.5 173.305 1475.5 173.208 1475.5 173.109C1475.5 173.109 1475.5 173.012 1475.41 173.012C1475.41 172.912 1475.31 173.012 1475.21 173.012H1475.01V174.287Z" fill="white"/>
<path fill-rule="evenodd" clip-rule="evenodd" d="M1366.71 176.743C1364.84 177.233 1363.47 177.529 1362.09 177.529C1359.15 177.529 1357.38 175.663 1357.38 172.324C1357.38 171.637 1357.48 170.95 1357.57 170.164L1357.97 167.907L1358.26 166.041L1360.91 149.938H1366.8L1366.12 153.473H1369.85L1368.96 159.364H1365.23L1363.66 168.986C1363.56 169.479 1363.56 169.772 1363.56 169.969C1363.56 171.246 1364.15 171.736 1365.62 171.736C1366.31 171.736 1366.9 171.639 1367.49 171.539L1366.71 176.743ZM1385.76 176.547C1383.6 177.136 1381.63 177.43 1379.47 177.43C1372.79 177.43 1368.96 173.895 1368.96 166.925C1368.96 158.774 1373.48 152.882 1379.76 152.882C1384.77 152.882 1388.01 156.221 1388.01 161.424C1388.01 163.193 1387.82 164.862 1387.33 167.218H1375.05C1374.95 167.611 1374.95 167.808 1374.95 168.004C1374.95 170.753 1376.82 172.127 1380.35 172.127C1382.61 172.127 1384.58 171.637 1386.74 170.656L1385.76 176.547ZM1382.12 162.505V161.327C1382.12 159.363 1381.04 158.283 1379.18 158.283C1377.21 158.283 1375.84 159.755 1375.25 162.504L1382.12 162.505ZM1319.57 177.037H1313.48L1317.02 154.749L1309.07 177.037H1304.84L1304.35 154.847L1300.62 177.037H1294.63L1299.44 148.071H1308.38L1308.58 165.944L1314.57 148.071H1324.38L1319.57 177.037ZM1334.4 166.532C1333.81 166.432 1333.62 166.432 1333.22 166.432C1329.69 166.432 1327.92 167.806 1327.92 169.968C1327.92 171.441 1328.8 172.423 1330.18 172.423C1333.12 172.423 1334.3 169.968 1334.4 166.532ZM1339.31 177.037H1334.01L1334.11 174.583C1332.73 176.447 1330.87 177.43 1327.63 177.43C1324.68 177.43 1322.13 174.78 1322.13 170.95C1322.13 169.87 1322.32 168.889 1322.62 167.907C1323.6 164.272 1327.23 162.015 1332.83 161.916C1333.52 161.916 1334.6 161.916 1335.58 162.015C1335.77 161.23 1335.77 160.934 1335.77 160.444C1335.77 158.872 1334.5 158.381 1331.65 158.381C1329.88 158.381 1327.92 158.676 1326.54 159.167L1325.66 159.363L1325.27 159.46L1326.15 154.158C1329 153.274 1331.06 152.882 1333.32 152.882C1338.62 152.882 1341.47 155.337 1341.47 159.853C1341.47 161.032 1341.57 161.916 1341.18 164.469L1339.8 172.913L1339.61 174.387L1339.51 175.566L1339.41 176.351L1339.31 177.037ZM1415.41 153.668C1417.18 153.668 1418.75 154.159 1420.91 155.239L1421.99 148.954C1421.4 148.659 1421.2 148.659 1420.42 148.365L1417.96 147.677C1417.18 147.481 1416.2 147.382 1415.12 147.382C1412.07 147.382 1410.3 147.481 1408.44 148.561C1407.46 149.249 1406.18 150.133 1404.8 151.703L1404.02 151.507L1397.73 155.925L1398.03 153.47H1391.55L1387.72 177.036H1393.91L1396.16 164.371C1396.16 164.371 1397.05 162.601 1397.44 162.014C1398.62 160.541 1399.6 160.541 1400.88 160.541H1401.37C1401.16 162.037 1401.06 163.547 1401.07 165.057C1401.07 172.716 1405.39 177.528 1412.07 177.528C1413.74 177.528 1415.22 177.331 1417.47 176.742L1418.55 170.066C1416.59 171.145 1414.82 171.636 1413.35 171.636C1409.72 171.636 1407.55 168.887 1407.55 164.567C1407.55 158.184 1410.79 153.668 1415.41 153.668ZM1467.55 148.071L1466.18 156.319C1464.7 154.061 1462.93 152.98 1460.58 152.98C1457.34 152.98 1454.29 154.846 1452.43 158.381V158.284L1448.5 155.926L1448.89 153.472H1442.31L1438.58 177.037H1444.67L1446.73 164.372C1446.73 164.372 1448.3 162.602 1448.7 162.015C1449.68 160.837 1450.66 160.639 1451.44 160.542C1450.76 162.505 1450.37 164.862 1450.37 167.514C1450.37 173.406 1453.41 177.333 1457.92 177.333C1460.18 177.333 1461.95 176.547 1463.62 174.68L1463.33 177.037H1469.12L1473.83 148.071H1467.55ZM1459.99 171.441C1457.93 171.441 1456.85 169.87 1456.85 166.825C1456.85 162.21 1458.81 158.872 1461.66 158.872C1463.82 158.872 1464.9 160.542 1464.9 163.488C1464.9 168.201 1462.93 171.441 1459.99 171.441ZM1431.61 166.532C1431.02 166.432 1430.83 166.432 1430.43 166.432C1426.9 166.432 1425.13 167.806 1425.13 169.968C1425.13 171.441 1426.01 172.423 1427.39 172.423C1430.33 172.423 1431.51 169.968 1431.61 166.532ZM1436.52 177.037H1431.12L1431.32 174.583C1429.94 176.447 1428.08 177.43 1424.84 177.43C1421.79 177.43 1419.14 174.877 1419.14 170.95C1419.14 165.354 1423.36 161.917 1430.04 161.917C1430.73 161.917 1431.81 161.917 1432.69 162.017C1432.89 161.231 1432.99 160.935 1432.99 160.445C1432.99 158.873 1431.71 158.382 1428.76 158.382C1427.1 158.382 1425.03 158.677 1423.66 159.168L1422.87 159.364L1422.48 159.461L1423.36 154.159C1426.21 153.275 1428.27 152.883 1430.53 152.883C1435.83 152.883 1438.58 155.338 1438.58 159.854C1438.58 161.033 1438.78 161.917 1438.29 164.47L1437.01 172.915L1436.82 174.388L1436.62 175.567L1436.52 176.353V177.037H1436.52ZM1352.17 158.479C1353.35 158.479 1355.02 158.577 1356.79 158.872L1357.67 153.373C1355.9 153.177 1353.55 152.882 1352.17 152.882C1345.3 152.882 1343.04 156.614 1343.04 160.934C1343.04 163.782 1344.32 165.843 1347.66 167.414C1350.11 168.592 1350.5 168.788 1350.5 169.869C1350.5 171.34 1349.23 172.226 1346.87 172.226C1345.01 172.226 1343.24 171.93 1341.27 171.243L1340.59 176.643L1340.68 176.742L1341.86 176.939C1342.26 177.036 1342.75 177.135 1343.43 177.232C1344.91 177.331 1346.18 177.429 1346.97 177.429C1353.84 177.429 1356.69 174.779 1356.69 169.573C1356.69 166.334 1355.12 164.371 1352.07 162.997C1349.42 161.817 1349.13 161.622 1349.13 160.541C1349.13 159.461 1350.31 158.479 1352.17 158.479Z" fill="#1B3771"/>
<path fill-rule="evenodd" clip-rule="evenodd" d="M1423.66 147.089L1422.58 153.373C1420.42 152.293 1418.84 151.803 1417.08 151.803C1412.46 151.803 1409.22 156.319 1409.22 162.702C1409.22 167.121 1411.38 169.771 1415.02 169.771C1416.49 169.771 1418.26 169.281 1420.22 168.3L1419.14 174.877C1416.88 175.466 1415.41 175.762 1413.74 175.762C1407.06 175.762 1402.94 170.95 1402.94 163.194C1402.94 152.883 1408.63 145.616 1416.78 145.616C1417.86 145.616 1418.84 145.715 1419.63 145.911L1422.09 146.501C1422.87 146.795 1423.07 146.893 1423.66 147.089ZM1403.82 151.41H1403.23C1401.17 151.41 1399.99 152.392 1398.13 155.239L1398.72 151.605H1393.12L1389.29 175.172H1395.48C1397.74 160.737 1398.32 158.283 1401.27 158.283H1401.66C1402.25 155.435 1403.04 153.372 1404.02 151.507L1403.82 151.41ZM1368.28 174.877C1366.61 175.466 1365.23 175.663 1363.86 175.663C1360.72 175.663 1358.95 173.896 1358.95 170.46C1358.95 169.87 1359.05 169.086 1359.15 168.397L1359.54 166.041L1359.83 164.176L1362.48 148.071H1368.57L1367.88 151.606H1371.03L1370.24 157.4H1367.1L1365.43 167.219C1365.33 167.612 1365.33 167.908 1365.33 168.202C1365.33 169.38 1365.92 169.872 1367.39 169.872C1368.08 169.872 1368.67 169.872 1369.06 169.675L1368.28 174.877ZM1344.61 159.068C1344.61 162.015 1345.99 164.076 1349.23 165.648C1351.78 166.826 1352.17 167.218 1352.17 168.201C1352.17 169.674 1351.09 170.36 1348.64 170.36C1346.77 170.36 1345.1 170.067 1343.14 169.478L1342.26 174.877L1342.55 174.976L1343.63 175.173C1344.02 175.27 1344.51 175.369 1345.3 175.369C1346.67 175.566 1347.85 175.566 1348.64 175.566C1355.12 175.566 1358.16 173.11 1358.16 167.711C1358.16 164.469 1356.89 162.602 1353.84 161.131C1351.19 159.953 1350.9 159.659 1350.9 158.578C1350.9 157.303 1351.98 156.713 1353.94 156.713C1355.12 156.713 1356.79 156.811 1358.36 157.008L1359.24 151.607C1357.67 151.313 1355.22 151.116 1353.84 151.116C1346.97 151.115 1344.51 154.749 1344.61 159.068ZM1470.69 175.173H1464.9L1465.19 172.913C1463.52 174.68 1461.76 175.466 1459.5 175.466C1454.98 175.466 1452.03 171.639 1452.03 165.747C1452.03 157.891 1456.65 151.213 1462.05 151.213C1464.51 151.213 1466.27 152.294 1467.94 154.454L1469.32 146.206H1475.41L1470.69 175.173ZM1461.66 169.674C1464.51 169.674 1466.47 166.335 1466.47 161.72C1466.47 158.676 1465.39 157.104 1463.23 157.104C1460.48 157.104 1458.42 160.344 1458.42 164.96C1458.42 168.103 1459.5 169.674 1461.66 169.674ZM1387.13 174.68C1384.97 175.369 1383.01 175.663 1380.75 175.663C1373.87 175.663 1370.34 172.03 1370.34 165.058C1370.34 157.007 1374.86 151.017 1381.04 151.017C1386.15 151.017 1389.39 154.356 1389.39 159.56C1389.39 161.328 1389.19 162.998 1388.6 165.451H1376.43C1376.33 165.747 1376.33 165.944 1376.33 166.14C1376.33 168.889 1378.2 170.263 1381.73 170.263C1383.99 170.263 1385.95 169.87 1388.11 168.79L1387.13 174.68ZM1383.69 160.639V159.461C1383.69 157.498 1382.61 156.417 1380.75 156.417C1378.78 156.417 1377.41 157.891 1376.82 160.639H1383.69ZM1321.14 175.173H1315.06L1318.59 152.882L1310.64 175.173H1306.42L1305.92 153.079L1302.19 175.173H1296.5L1301.31 146.206H1310.15L1310.44 164.175L1316.33 146.206H1325.96L1321.14 175.173ZM1336.36 164.665C1335.78 164.665 1335.48 164.568 1334.99 164.568C1331.55 164.568 1329.79 165.844 1329.79 168.201C1329.79 169.674 1330.57 170.557 1331.95 170.557C1334.5 170.557 1336.27 168.201 1336.36 164.665ZM1340.88 175.173H1335.77L1335.87 172.717C1334.3 174.68 1332.24 175.566 1329.39 175.566C1326.05 175.566 1323.79 173.013 1323.79 169.183C1323.79 163.391 1327.72 160.052 1334.6 160.052C1335.28 160.052 1336.17 160.15 1337.15 160.247C1337.34 159.463 1337.34 159.168 1337.34 158.775C1337.34 157.204 1336.26 156.615 1333.42 156.615C1331.65 156.615 1329.68 156.811 1328.31 157.204L1327.43 157.499L1326.84 157.597L1327.72 152.295C1330.77 151.411 1332.83 151.116 1335.09 151.116C1340.39 151.116 1343.24 153.473 1343.24 157.989C1343.24 159.168 1343.14 160.052 1342.75 162.703L1341.37 171.05L1341.17 172.522L1341.08 173.7L1340.98 174.586L1340.88 175.173ZM1433.58 164.665C1432.89 164.665 1432.59 164.568 1432.2 164.568C1428.67 164.568 1426.9 165.844 1426.9 168.201C1426.9 169.674 1427.78 170.557 1429.16 170.557C1431.61 170.557 1433.48 168.201 1433.58 164.665ZM1438.09 175.173H1432.99L1433.08 172.717C1431.51 174.68 1429.45 175.566 1426.6 175.566C1423.27 175.566 1421.01 173.013 1421.01 169.183C1421.01 163.391 1424.93 160.052 1431.81 160.052C1432.5 160.052 1433.38 160.15 1434.26 160.247C1434.46 159.463 1434.56 159.168 1434.56 158.775C1434.56 157.204 1433.48 156.615 1430.63 156.615C1428.86 156.615 1426.8 156.811 1425.43 157.204L1424.64 157.499L1424.05 157.597L1424.93 152.295C1427.98 151.411 1430.04 151.116 1432.3 151.116C1437.6 151.116 1440.35 153.473 1440.35 157.989C1440.35 159.168 1440.35 160.052 1439.86 162.703L1438.58 171.05L1438.39 172.522L1438.19 173.7L1438.09 174.586L1438.09 175.173ZM1454.59 151.41H1454C1451.94 151.41 1450.76 152.392 1448.89 155.239L1449.48 151.605H1443.88L1440.15 175.172H1446.24C1448.5 160.737 1449.09 158.283 1452.04 158.283H1452.43C1453.02 155.435 1453.8 153.372 1454.78 151.507L1454.59 151.41Z" fill="white"/>
</svg>
