<svg width="224" height="69" viewBox="0 0 224 69" fill="none" xmlns="http://www.w3.org/2000/svg">
<path fill-rule="evenodd" clip-rule="evenodd" d="M138.959 53.6205C125.99 63.2092 107.127 68.318 90.8575 68.318C68.0645 68.318 47.6295 59.9082 32.0674 45.918C30.8884 44.8176 31.9102 43.3243 33.4035 44.1889C50.1445 53.9348 70.8154 59.751 92.1937 59.751C106.577 59.751 122.453 56.7643 137.072 50.5552C139.273 49.6906 141.081 52.0485 138.959 53.6205Z" fill="#FF9900"/>
<path fill-rule="evenodd" clip-rule="evenodd" d="M144.382 47.4112C142.731 45.2891 133.378 46.3894 129.213 46.9396C127.955 47.0968 127.719 45.9965 128.898 45.2105C136.365 39.9445 148.547 41.5165 149.962 43.2456C151.377 44.9747 149.569 57.2358 142.574 63.0519C141.474 63.9165 140.452 63.4449 140.924 62.2659C142.495 58.3361 146.032 49.6119 144.382 47.4112Z" fill="#FF9900"/>
<path fill-rule="evenodd" clip-rule="evenodd" d="M129.448 8.27014V3.16137C129.448 2.37541 129.999 1.90382 130.706 1.90382H153.499C154.206 1.90382 154.835 2.454 154.835 3.16137V7.48418C154.835 8.19155 154.206 9.13471 153.106 10.7066L141.316 27.5263C145.718 27.4477 150.355 28.0765 154.285 30.2772C155.149 30.7487 155.385 31.5347 155.464 32.2421V37.6652C155.464 38.4512 154.678 39.3158 153.813 38.8442C146.818 35.1501 137.465 34.7572 129.763 38.9228C128.977 39.3158 128.112 38.5298 128.112 37.7438V32.5565C128.112 31.7705 128.112 30.3558 128.977 29.0982L142.653 9.52769H130.785C130.077 9.52769 129.448 8.97751 129.448 8.27014ZM46.3719 39.9445H39.4554C38.8267 39.8659 38.2765 39.3943 38.1979 38.7656V3.23997C38.1979 2.53261 38.8267 1.98243 39.534 1.98243H45.979C46.6863 1.98243 47.1579 2.5326 47.2365 3.16137V7.79856H47.3937C49.0442 3.31856 52.2667 1.19646 56.5109 1.19646C60.8337 1.19646 63.5846 3.31856 65.4709 7.79856C67.1214 3.31856 70.9726 1.19646 75.0597 1.19646C77.9677 1.19646 81.1116 2.37541 83.0765 5.12629C85.2772 8.11295 84.8056 12.4358 84.8056 16.287V38.7656C84.8056 39.4729 84.1769 40.0231 83.4695 40.0231H76.6316C75.9242 39.9445 75.374 39.3943 75.374 38.7656V19.9024C75.374 18.4091 75.5312 14.6365 75.2169 13.2217C74.6667 10.8638 73.1733 10.1565 71.1298 10.1565C69.4793 10.1565 67.6716 11.2568 66.9642 13.0645C66.2568 14.8723 66.3354 17.8589 66.3354 19.9024V38.7656C66.3354 39.4729 65.7067 40.0231 64.9993 40.0231H58.0828C57.3754 39.9445 56.8253 39.3943 56.8253 38.7656V19.9024C56.8253 15.9726 57.454 10.0779 52.5811 10.0779C47.6295 10.0779 47.7867 15.7368 47.7867 19.9024V38.7656C47.7081 39.3943 47.1579 39.9445 46.3719 39.9445ZM174.484 1.19646C184.78 1.19646 190.361 9.99927 190.361 21.2386C190.361 32.0849 184.23 40.7305 174.484 40.7305C164.424 40.7305 158.922 31.9277 158.922 20.9242C158.844 9.84208 164.424 1.19646 174.484 1.19646ZM174.484 8.50592C169.375 8.50592 169.061 15.501 169.061 19.8238C169.061 24.1466 168.982 33.421 174.406 33.421C179.75 33.421 180.065 25.9544 180.065 21.3958C180.065 18.4091 179.907 14.7937 179.043 11.9642C178.257 9.4491 176.685 8.50592 174.484 8.50592ZM203.644 39.9445H196.727C196.02 39.8659 195.469 39.3158 195.469 38.687V3.08277C195.548 2.454 196.098 1.90382 196.806 1.90382H203.251C203.879 1.90382 204.351 2.37542 204.508 2.92559V8.34875H204.665C206.63 3.47576 209.302 1.19646 214.097 1.19646C217.162 1.19646 220.227 2.2968 222.192 5.36207C224 8.19154 224 12.9859 224 16.4442V38.8442C223.921 39.4729 223.371 39.9445 222.664 39.9445H215.747C215.119 39.8659 214.568 39.3943 214.49 38.8442V19.5094C214.49 15.5796 214.961 9.92068 210.167 9.92068C208.516 9.92068 206.945 11.021 206.159 12.7502C205.215 14.9509 205.058 17.0729 205.058 19.5094V38.687C204.98 39.3944 204.351 39.9445 203.644 39.9445ZM111.293 22.9677C111.293 25.64 111.371 27.9193 110.035 30.3558C108.935 32.3207 107.206 33.4996 105.241 33.4996C102.568 33.4996 100.996 31.4561 100.996 28.4695C100.996 22.5747 106.262 21.4743 111.293 21.4743V22.9677ZM118.288 39.8659C117.816 40.2589 117.187 40.3375 116.637 40.0231C114.358 38.1368 113.886 37.1937 112.629 35.3859C108.856 39.2372 106.105 40.4161 101.232 40.4161C95.4161 40.4161 90.8576 36.8007 90.8576 29.6484C90.8576 23.9895 93.9228 20.2168 98.2456 18.3305C102.018 16.68 107.284 16.3656 111.293 15.894V15.0294C111.293 13.3789 111.45 11.414 110.428 9.99928C109.564 8.74173 107.992 8.19154 106.577 8.19154C103.905 8.19154 101.547 9.5277 100.996 12.3572C100.839 12.9859 100.446 13.6147 99.8176 13.6147L93.1368 12.9073C92.5867 12.7501 91.9579 12.3572 92.1151 11.4926C93.687 3.31857 100.996 0.88208 107.599 0.88208C110.978 0.88208 115.38 1.74664 118.052 4.34032C121.432 7.48418 121.117 11.7284 121.117 16.287V27.0547C121.117 30.2772 122.453 31.6919 123.711 33.4996C124.182 34.1284 124.261 34.9143 123.711 35.3073C122.218 36.4863 119.702 38.687 118.288 39.8659ZM20.5137 22.9677C20.5137 25.64 20.5923 27.9193 19.2562 30.3558C18.1558 32.3207 16.4267 33.4996 14.4618 33.4996C11.7895 33.4996 10.2176 31.4561 10.2176 28.4695C10.2176 22.5747 15.4835 21.4743 20.5137 21.4743V22.9677ZM27.4302 39.8659C26.9586 40.2589 26.3298 40.3375 25.7797 40.0231C23.5004 38.1368 23.0288 37.1937 21.7712 35.3859C17.9986 39.2372 15.2477 40.4161 10.3747 40.4161C4.55861 40.4161 1.52588e-05 36.8007 1.52588e-05 29.6484C1.52588e-05 23.9895 3.06527 20.2168 7.38808 18.3305C11.1607 16.68 16.4267 16.3656 20.4351 15.894V15.0294C20.4351 13.3789 20.5923 11.414 19.5705 9.99928C18.706 8.74173 17.134 8.19154 15.7193 8.19154C13.047 8.19154 10.6891 9.5277 10.139 12.3572C9.98176 12.9859 9.58878 13.6147 8.96001 13.6147L2.27931 12.9073C1.72913 12.7501 1.10037 12.3572 1.25756 11.4926C2.82949 3.31857 10.139 0.88208 16.7411 0.88208C20.1207 0.88208 24.5221 1.74664 27.1944 4.34032C30.5741 7.48418 30.2597 11.7284 30.2597 16.287V27.0547C30.2597 30.2772 31.5958 31.6919 32.8533 33.4996C33.3249 34.1284 33.4035 34.9143 32.8533 35.3073C31.36 36.4863 28.8449 38.687 27.4302 39.8659Z" fill="black"/>
</svg>
