<svg width="214" height="70" viewBox="0 0 214 70" fill="none" xmlns="http://www.w3.org/2000/svg">
<path d="M92.6685 68.1935H75.2258L86.1272 1.19713H103.572L92.6685 68.1935ZM60.552 1.19713L43.9229 47.2778L41.9552 37.3548L41.957 37.3584L36.0878 7.22939C36.0878 7.22939 35.3781 1.19713 27.8136 1.19713H0.322581L0 2.33154C0 2.33154 8.40681 4.08064 18.2455 9.98924L33.3996 68.1953H51.5735L79.3244 1.19713H60.552ZM197.747 68.1935H213.763L199.799 1.19534H185.778C179.303 1.19534 177.726 6.18817 177.726 6.18817L151.711 68.1935H169.894L173.53 58.2419H195.704L197.747 68.1935ZM178.554 44.4946L187.719 19.4229L192.875 44.4946H178.554ZM153.075 17.3082L155.565 2.92114C155.565 2.92114 147.884 0 139.876 0C131.22 0 110.665 3.78315 110.665 22.1792C110.665 39.4875 134.79 39.7025 134.79 48.7939C134.79 57.8853 113.151 56.2563 106.009 50.5233L103.416 65.5663C103.416 65.5663 111.204 69.3495 123.104 69.3495C135.007 69.3495 152.964 63.1864 152.964 46.4122C152.964 28.9928 128.622 27.371 128.622 19.7975C128.624 12.2222 145.611 13.1953 153.075 17.3082Z" fill="#2566AF"/>
<path d="M41.957 37.3566L36.0878 7.22757C36.0878 7.22757 35.3781 1.19531 27.8136 1.19531H0.322581L0 2.32972C0 2.32972 13.2133 5.06807 25.8871 15.3279C38.0054 25.1344 41.957 37.3566 41.957 37.3566Z" fill="#E6A540"/>
</svg>
