<svg width="240" height="44" viewBox="0 0 240 44" fill="none" xmlns="http://www.w3.org/2000/svg">
<path d="M19.577 4.3435C27.2847 3.16409 35.0072 2.05319 42.7296 0.981445C42.7345 7.7496 42.7296 14.5129 42.7345 21.281C35.017 21.3104 27.2994 21.4278 19.577 21.4523C19.5721 15.7461 19.5721 10.0448 19.577 4.3435ZM0.00170898 7.07425C5.80578 6.17868 11.6348 5.40546 17.4633 4.67628C17.4682 10.2895 17.4682 15.8978 17.4731 21.511C11.6495 21.5061 5.82535 21.5942 0.00170898 21.5795V7.07425ZM92.211 8.01876C93.7379 7.04489 95.6905 9.07582 94.7999 10.6027C94.3692 11.7234 92.7934 12.1491 91.9027 11.327C90.7869 10.5684 90.9435 8.55218 92.211 8.01876ZM132.198 7.81811C133.177 7.81322 134.156 7.81322 135.135 7.81322V35.2186H132.209C132.214 34.2252 132.194 33.2312 132.126 32.2383C130.006 36.0452 124.339 36.8874 121.1 34.0637C118.785 32.0719 118.08 28.8322 118.203 25.9003C118.227 22.9248 119.206 19.7634 121.574 17.8206C124.653 15.2856 130.109 15.4324 132.218 19.1566C132.179 15.3742 132.213 11.5961 132.198 7.81811ZM125.876 18.653C123.527 19.025 121.936 21.1684 121.496 23.3853C120.918 26.0574 121.021 29.1498 122.705 31.421C124.525 33.8381 128.543 33.8924 130.491 31.607C131.817 30.2269 132.194 28.2498 132.204 26.3999C132.218 24.4473 132.385 22.2451 131.088 20.6154C129.942 18.9858 127.804 18.2517 125.876 18.653ZM218.922 8.86539C219.181 8.83113 219.7 8.75772 219.954 8.72347C219.969 17.5519 219.96 26.3853 219.96 35.2186H217.063C217.082 27.8681 217.013 20.5127 217.096 13.1622C215.251 14.4394 213.26 15.5308 211.092 16.1376C211.106 15.1588 211.116 14.1801 211.125 13.2013C213.965 12.2372 216.548 10.681 218.922 8.86539ZM230.662 8.8556C233.207 8.42984 236.031 9.35966 237.543 11.5227C239.692 14.5569 239.892 18.4475 240 22.0347C239.927 25.8225 239.511 29.9279 237.093 33.0164C234.867 35.938 230.306 36.6231 227.32 34.4747C224.898 32.7276 223.948 29.6783 223.518 26.8551C223.028 22.6611 223.072 18.2615 224.531 14.2584C225.45 11.5423 227.721 9.20306 230.662 8.8556ZM230.212 11.4836C227.603 12.5406 226.855 15.6237 226.493 18.1294C226.111 21.6236 226.023 25.2254 226.855 28.6653C227.271 30.359 228.147 32.1551 229.825 32.8984C231.729 33.8576 234.274 33.0311 235.277 31.1513C236.877 28.3868 236.916 25.0683 236.936 21.9612C236.872 18.932 236.75 15.6727 235.076 13.0398C234.083 11.4346 231.944 10.7887 230.212 11.4836ZM55.7668 9.27647C56.8679 9.28136 57.969 9.28136 59.075 9.29604C60.7932 15.5014 62.4865 21.7166 64.2086 27.9263C64.5795 29.2314 64.8478 30.5635 65.0112 31.9104C66.8023 24.2907 69.2492 16.8325 71.3046 9.27647C72.2589 9.28136 73.2132 9.28136 74.168 9.28625C75.6802 14.6646 77.094 20.0673 78.5915 25.4505C79.145 27.594 79.8595 29.7082 80.0846 31.9246C81.7045 24.3147 84.0139 16.8565 85.8491 9.29604C86.9355 9.28136 88.0219 9.28136 89.1084 9.28136C86.7397 17.9385 84.2733 26.5712 81.8758 35.2186H78.3468C76.6095 29.0088 74.8874 22.7927 73.1305 16.5927C72.8364 15.5895 72.7141 14.552 72.6216 13.5145C72.4845 14.4101 72.3573 15.3154 72.1268 16.1914C70.3503 22.5142 68.5494 28.8268 66.8219 35.1599C65.6479 35.2235 64.4729 35.2284 63.2984 35.2186C60.778 26.5761 58.2773 17.9238 55.7668 9.27647ZM102.312 19.6171C103.99 16.627 107.906 15.2518 111.062 16.6368C113.573 17.6155 114.507 20.522 114.586 22.9987C114.722 27.0699 114.61 31.1465 114.644 35.2186C113.666 35.2186 112.687 35.2186 111.708 35.2137C111.663 31.3035 111.811 27.3836 111.639 23.4734C111.561 21.5355 110.739 19.206 108.63 18.7117C105.552 17.7819 102.478 20.5567 102.38 23.6007C102.292 27.4717 102.375 31.3476 102.346 35.2186H99.4093C99.4147 29.0181 99.4147 22.8226 99.4093 16.6221H102.351C102.346 17.6204 102.341 18.6188 102.312 19.6171ZM146.557 16.1621C149.175 15.9321 152.077 16.3431 154.044 18.237C156.266 20.2876 156.927 23.4734 156.805 26.3853C156.77 29.0034 155.801 31.6608 153.883 33.4862C149.88 37.1272 142.446 36.3295 139.906 31.3231C137.91 27.1291 138.31 21.325 141.956 18.1392C143.263 17.0332 144.917 16.5291 146.557 16.1621ZM146.028 18.8243C141.716 20.1505 140.987 25.7833 142.333 29.4879C143.405 32.7766 147.584 34.2349 150.584 32.6983C152.615 31.7636 153.54 29.4733 153.736 27.3738C153.955 24.922 153.76 22.1428 152.028 20.2288C150.56 18.5747 148.074 18.2175 146.028 18.8243ZM191.086 16.1523C192.921 16.025 194.79 16.2012 196.518 16.8766C196.997 17.7868 196.626 18.9809 196.739 20.0037C194.678 18.7166 191.839 17.8945 189.603 19.206C188.072 20.038 187.998 22.4991 189.491 23.4147C191.629 24.7997 194.346 25.1618 196.244 26.9431C198.339 28.9594 197.83 32.8353 195.378 34.3475C192.398 36.2463 188.473 36.0603 185.351 34.6118C185.351 33.5155 185.346 32.4198 185.326 31.3231C187.548 33.0164 190.67 33.956 193.328 32.7521C194.879 31.974 194.957 29.5907 193.592 28.5875C191.453 27.0117 188.522 26.7621 186.623 24.7948C184.749 22.9058 185.086 19.4311 187.177 17.8309C188.257 16.8374 189.72 16.5389 191.086 16.1523ZM91.5797 16.627C92.5585 16.6221 93.5373 16.6221 94.516 16.6221V35.2186H91.5797C91.5797 29.0181 91.5846 22.8226 91.5797 16.627ZM158.028 16.6221H161.092C162.305 21.051 163.48 25.4897 164.718 29.9137C164.967 30.7452 165.06 31.607 165.148 32.4683C166.533 27.1345 168.285 21.8976 169.856 16.6172L172.534 16.6319C173.88 21.9172 175.553 27.1242 176.669 32.4634C177.819 27.1531 179.453 21.9612 180.731 16.6808C181.715 16.6319 182.698 16.6172 183.686 16.6074C181.822 22.8084 180.035 29.0279 178.162 35.2186H175.117C173.796 30.178 172.083 25.2352 171.011 20.1407C169.734 25.2303 167.962 30.1829 166.504 35.2186H163.563C161.723 29.0181 159.844 22.8319 158.028 16.6221ZM0.00170898 23.3462C5.82095 23.3266 11.6392 23.4196 17.458 23.4098C17.458 29.0377 17.4726 34.6656 17.4633 40.2935C11.6495 39.4317 5.82535 38.6785 0.00170898 37.8906V23.3462ZM19.5427 23.5713H42.7296C42.7394 30.3199 42.7296 37.0685 42.7296 43.8219C35.0219 42.667 27.2994 41.5952 19.577 40.5485C19.5672 34.8907 19.5525 29.2335 19.5427 23.5713Z" fill="#00ADEF"/>
</svg>
