<svg width="234" height="52" viewBox="0 0 234 52" fill="none" xmlns="http://www.w3.org/2000/svg">
<path d="M39.2631 51.3309L24.0195 51.052C19.0838 50.955 14.136 51.149 9.29732 50.1425C1.93625 48.6388 1.41479 41.2656 0.869075 35.0808C0.117203 26.3858 0.40825 17.5331 1.82711 8.9108C2.62749 4.07214 5.7805 1.18593 10.6555 0.870624C27.1118 -0.269311 43.6773 -0.135914 60.0972 0.397672C61.8313 0.44618 63.5776 0.712974 65.2875 1.01615C73.7279 2.49564 73.9341 10.8511 74.4798 17.8848C75.0255 24.9912 74.7951 32.1339 73.7522 39.1918C72.9154 45.037 71.3146 49.9363 64.5599 50.4093C56.0953 51.0278 47.8247 51.525 39.3358 51.3673C39.3358 51.3309 39.2873 51.3309 39.2631 51.3309ZM30.3012 36.536C36.68 32.8737 42.9375 29.272 49.2799 25.6339C42.889 21.9715 36.6436 18.3698 30.3012 14.7317V36.536Z" fill="#FF0000"/>
<path d="M197.144 44.6855C196.853 45.8739 196.598 46.8077 196.344 47.8021H190.377V1.78027H197.338V18.758C197.702 18.2972 197.884 18.1032 198.041 17.897C199.23 16.2599 200.77 15.1927 202.759 14.7804C205.924 14.1619 208.628 15.5565 209.586 18.6004C210.205 20.4922 210.605 22.5174 210.654 24.4941C210.751 29.5753 210.678 34.6444 210.496 39.7256C210.423 41.2778 209.95 42.8664 209.356 44.3217C207.403 49.124 201.025 49.8516 197.86 45.692C197.666 45.4374 197.484 45.1584 197.144 44.6855ZM197.484 32.0249V40.441C197.484 41.8114 198.211 42.6482 199.582 42.9635C200.928 43.2788 202.019 42.7573 202.565 41.5082C202.795 40.9868 203.026 40.441 203.038 39.8953C203.171 34.7535 203.292 29.6117 203.329 24.4577C203.329 23.4997 203.098 22.5053 202.807 21.5715C202.262 19.8858 200.758 19.3886 199.278 20.3709C198.163 21.1228 197.484 22.19 197.484 23.6088V32.0249ZM178.566 15.4352H185.854V47.8264H180.166C179.96 46.6015 179.754 45.3403 179.511 43.8609C179.123 44.4308 178.893 44.7946 178.65 45.1584C176.759 47.887 174.079 48.8208 170.913 48.3236C168.209 47.887 166.584 45.8012 166.22 42.3814C166.111 41.3627 166.063 40.3319 166.063 39.3132C166.038 31.7339 166.063 24.1303 166.063 16.5509V15.411H173.436V16.7328C173.436 24.0575 173.412 31.3701 173.46 38.6948C173.46 39.7377 173.569 40.817 173.751 41.8599C173.957 42.9271 174.733 43.3151 175.776 43.2424C177.462 43.109 178.626 41.8599 178.626 40.1864V16.8662C178.566 16.3933 178.566 15.9567 178.566 15.4352ZM128.384 15.411H135.709V16.7813C135.709 24.0696 135.685 31.3458 135.733 38.6099C135.733 39.6528 135.83 40.7321 136.048 41.7508C136.327 42.9513 137.031 43.3394 138.231 43.1817C139.893 42.9513 140.899 41.7993 140.911 40.1136V16.9147V15.4595H148.2V47.8264H142.536C142.33 46.6258 142.124 45.3888 141.857 43.8245C141.493 44.3702 141.287 44.6855 141.081 45.0129C139.189 47.79 136.533 48.8087 133.296 48.3114C130.7 47.9234 129.112 46.0073 128.627 42.8664C128.493 41.8842 128.396 40.914 128.396 39.9317C128.372 32.0613 128.372 24.1545 128.372 16.2841L128.384 15.411ZM124.625 32.704C124.601 33.7955 124.528 34.8869 124.467 35.9783C124.188 39.2526 124.055 43.8972 121.411 46.2862C119.726 47.79 117.591 48.3357 115.384 48.4085C114.402 48.4327 113.407 48.4327 112.425 48.2993C107.78 47.596 105.622 45.5465 104.846 40.441C103.96 34.5473 103.888 28.5566 104.943 22.6629C106.034 16.563 109.794 14.4044 115.639 14.8046C121.096 15.1927 123.533 18.7702 124.176 23.8635C124.528 26.7861 124.698 29.7451 124.625 32.704ZM117.203 31.5884C117.203 29.5146 117.252 27.4288 117.179 25.3551C117.13 24.1545 116.973 22.9418 116.718 21.7534C116.427 20.383 115.554 19.7282 114.462 19.7524C113.395 19.7767 112.643 20.4315 112.255 21.7049C112.122 22.1778 111.976 22.6629 111.976 23.1359C111.976 26.3859 111.952 29.648 111.928 32.8981C111.904 35.9298 111.516 39.1071 112.474 42.0054C112.765 42.8907 113.517 43.3758 114.499 43.3758C115.457 43.3758 116.087 42.9028 116.439 42.0539C116.718 41.3991 116.961 40.6836 116.961 39.9802C117.045 37.191 117.203 34.3897 117.203 31.5884ZM94.1497 25.4885C94.7925 22.3476 95.3988 19.2795 96.0658 16.1992C96.9026 12.2822 97.8363 8.36522 98.661 4.43608C98.8671 3.47805 99.2552 3.24764 100.165 3.27189C102.117 3.34465 104.106 3.29614 106.192 3.29614C105.513 5.7943 104.846 8.17119 104.191 10.5117C102.117 17.8606 100.043 25.2338 97.994 32.607C97.8363 33.177 97.7636 33.7955 97.7636 34.4018C97.7393 38.428 97.7636 42.442 97.7636 46.4681V47.7779H90.645C90.6208 47.4141 90.5723 47.0502 90.5723 46.6864C90.5723 44.4066 90.3904 42.1146 90.5965 39.859C91.118 34.4382 89.396 29.454 88.0014 24.4092C86.1581 17.7394 84.2905 11.0453 82.4472 4.37544C82.3502 4.06014 82.3138 3.72059 82.2168 3.33253H89.4809C91.0089 10.6936 92.549 18.0547 94.1497 25.4885ZM233.428 33.941H221.155C221.289 36.4028 221.337 38.7433 221.592 41.0595C221.774 42.6724 222.659 43.3636 224.054 43.3758C225.509 43.4 226.358 42.6724 226.697 41.0716C226.807 40.5502 226.879 40.0287 226.928 39.4951C226.976 39.0222 227.001 38.5129 227.037 37.8337C229.111 37.9429 231.136 38.0642 233.137 38.149C234.301 41.6052 232.203 46.0437 228.674 47.4141C225.897 48.5055 223.047 48.5055 220.21 47.6687C218.112 47.0502 216.547 45.7163 215.844 43.6668C215.189 41.7508 214.571 39.7498 214.437 37.7489C214.073 32.8132 213.94 27.829 214.692 22.8812C214.825 22.0566 215.056 21.2683 215.31 20.4679C216.329 17.1694 218.548 15.1442 221.98 14.8046C223.848 14.6227 225.776 14.6955 227.619 15.0108C230.602 15.5323 232.191 17.6787 232.882 20.4922C233.198 21.814 233.428 23.1722 233.476 24.5183C233.489 27.6107 233.428 30.6788 233.428 33.941ZM226.455 29.6844C226.455 27.2469 226.479 24.9549 226.431 22.6508C226.431 22.1051 226.225 21.5351 226.018 21.0136C225.606 19.995 224.745 19.7161 223.714 19.7161C222.683 19.7161 222.029 20.2375 221.774 21.1713C220.998 23.9726 221.252 26.8346 221.277 29.7087C223.132 29.6844 224.818 29.6844 226.455 29.6844Z" fill="#282828"/>
<path d="M153.827 9.23826H146.611V3.39307H168.148V9.20188H160.981V47.7778H153.839L153.827 9.23826Z" fill="#282828"/>
</svg>
