<svg width="190" height="115" viewBox="0 0 190 115" fill="none" xmlns="http://www.w3.org/2000/svg">
<path fill-rule="evenodd" clip-rule="evenodd" d="M95.0491 99.5678C105.065 108.797 118.516 114.395 133.147 114.395C164.568 114.395 190 88.7669 190 57.246C190 25.6293 164.568 0 133.147 0C118.516 0 105.065 5.59691 95.0491 14.8272C83.5606 25.3334 76.2938 40.4553 76.2938 57.246C76.2949 74.0368 83.5606 89.1598 95.0491 99.5678Z" fill="#E9B040"/>
<path fill-rule="evenodd" clip-rule="evenodd" d="M182.442 89.0605C182.442 88.0782 183.228 87.2935 184.209 87.2935C185.288 87.2935 186.073 88.0793 186.073 89.0605C186.073 90.1422 185.287 90.9269 184.209 90.9269C183.228 90.9269 182.442 90.1422 182.442 89.0605ZM184.209 90.5351C184.995 90.5351 185.68 89.8463 185.68 89.0616C185.68 88.2769 184.994 87.6875 184.209 87.6875C183.52 87.6875 182.835 88.2769 182.835 89.0616C182.835 89.8463 183.521 90.5351 184.209 90.5351ZM184.012 89.9457H183.62V88.2758H184.306C184.405 88.2758 184.602 88.2758 184.699 88.3752C184.895 88.4722 184.895 88.5716 184.895 88.7681C184.895 88.9646 184.798 89.161 184.602 89.161L184.995 89.9469H184.502L184.306 89.2581H184.012V89.9457V88.9634H184.405C184.502 88.9634 184.502 88.864 184.502 88.7669C184.502 88.6675 184.502 88.6676 184.405 88.5705H184.012V89.9457Z" fill="#E9B040"/>
<path fill-rule="evenodd" clip-rule="evenodd" d="M113.412 51.1591C113.215 49.0974 112.822 47.1339 112.429 45.0711H77.669C78.0619 43.0094 78.6513 41.0459 79.2396 39.0813H110.76C110.076 37.0141 109.29 34.9823 108.404 32.9932H81.6954C82.6778 30.9133 83.7592 28.8816 84.9359 26.9051H105.066C103.771 24.808 102.328 22.8063 100.747 20.9153H89.2569C91.0341 18.7449 92.9706 16.7099 95.0503 14.8272C84.937 5.69514 71.5821 0 56.8531 0C25.5299 0 0 25.6293 0 57.246C0 88.7669 25.5299 114.395 56.8531 114.395C71.5821 114.395 84.9359 108.797 95.0503 99.5678C97.0981 97.7181 99.0024 95.7153 100.747 93.5768H89.2569C87.6852 91.6133 86.3111 89.6498 84.9359 87.4887H105.066C106.332 85.547 107.448 83.5118 108.405 81.4007H81.6954C80.8113 79.4372 79.9283 77.4737 79.2396 75.4097H110.76C111.447 73.4462 111.939 71.3857 112.428 69.3216C112.821 67.3582 113.214 65.2976 113.41 63.2336C113.609 61.2428 113.708 59.2433 113.706 57.2426C113.706 55.1843 113.608 53.1226 113.412 51.1591Z" fill="#CC2131"/>
<path fill-rule="evenodd" clip-rule="evenodd" d="M182.442 70.5028C182.442 69.4234 183.228 68.6387 184.209 68.6387C185.288 68.6387 186.073 69.4245 186.073 70.5028C186.073 71.4851 185.287 72.3692 184.209 72.3692C183.228 72.3692 182.442 71.4839 182.442 70.5028ZM184.209 71.8769C184.995 71.8769 185.68 71.2875 185.68 70.5028C185.68 69.7181 184.994 69.1287 184.209 69.1287C183.52 69.1287 182.835 69.7181 182.835 70.5028C182.835 71.2875 183.521 71.8769 184.209 71.8769ZM184.012 71.2875H183.62V69.7169H184.699C184.895 69.8163 184.895 70.0128 184.895 70.2092C184.895 70.3063 184.798 70.5028 184.602 70.6021L184.995 71.2886H184.502L184.306 70.6992H184.012V71.2875V70.4045H184.209C184.306 70.4045 184.405 70.4045 184.405 70.3051C184.502 70.3051 184.502 70.2081 184.502 70.1087C184.502 70.1087 184.502 70.0116 184.405 70.0116C184.405 69.9122 184.306 70.0116 184.209 70.0116H184.012V71.2875Z" fill="white"/>
<path fill-rule="evenodd" clip-rule="evenodd" d="M75.7055 73.7432C73.8403 74.2332 72.465 74.5291 71.091 74.5291C68.1452 74.5291 66.377 72.6627 66.377 69.324C66.377 68.6375 66.4752 67.9499 66.5734 67.164L66.9664 64.907L67.2611 63.0406L69.9122 46.9375H75.8038L75.1161 50.4727H78.8478L77.9637 56.3643H74.2321L72.6615 65.9864C72.5633 66.4787 72.5633 66.7722 72.5633 66.9687C72.5633 68.2457 73.1527 68.7357 74.625 68.7357C75.3126 68.7357 75.9008 68.6387 76.4902 68.5393L75.7055 73.7432ZM94.7556 73.5468C92.5956 74.1362 90.6321 74.4297 88.471 74.4297C81.7936 74.4297 77.9637 70.8945 77.9637 63.9247C77.9637 55.7737 82.4812 49.8821 88.7646 49.8821C93.7721 49.8821 97.0126 53.2209 97.0126 58.4237C97.0126 60.193 96.8161 61.8618 96.3261 64.2182H84.0518C83.9535 64.6111 83.9535 64.8076 83.9535 65.0041C83.9535 67.7534 85.8188 69.1275 89.354 69.1275C91.6122 69.1275 93.5756 68.6375 95.7367 67.6563L94.7556 73.5468ZM91.1222 59.5054V58.3266C91.1222 56.3631 90.0416 55.2826 88.1764 55.2826C86.2117 55.2826 84.8376 56.7549 84.2482 59.5042L91.1222 59.5054ZM28.5727 74.0368H22.4847L26.0199 51.7486L18.0666 74.0368H13.8449L13.3537 51.8468L9.62209 74.0368H3.63226L8.44331 45.0711H17.3789L17.5754 62.9435L23.5652 45.0711H33.385L28.5727 74.0368ZM43.4011 63.5318C42.8117 63.4324 42.6153 63.4324 42.2223 63.4324C38.6872 63.4324 36.9201 64.8065 36.9201 66.9676C36.9201 68.441 37.8042 69.4234 39.1783 69.4234C42.1241 69.4234 43.3017 66.9676 43.4011 63.5318ZM48.3104 74.0368H43.0082L43.1064 71.5833C41.7312 73.4474 39.8659 74.4297 36.6254 74.4297C33.6796 74.4297 31.1268 71.7798 31.1268 67.9499C31.1268 66.8705 31.3232 65.8893 31.6179 64.907C32.5991 61.2724 36.2325 59.0154 41.8294 58.916C42.517 58.916 43.5964 58.916 44.5788 59.0154C44.7741 58.2295 44.7741 57.9337 44.7741 57.4437C44.7741 55.872 43.4982 55.3808 40.6506 55.3808C38.8836 55.3808 36.919 55.6755 35.5449 56.1667L34.6608 56.3631L34.2679 56.4602L35.152 51.158C37.9995 50.2739 40.0612 49.8821 42.3206 49.8821C47.6228 49.8821 50.4704 52.3368 50.4704 56.8531C50.4704 58.0319 50.5686 58.916 50.1757 61.4689L48.8016 69.9133L48.6051 71.3868L48.5069 72.5656L48.4086 73.3515L48.3104 74.0368ZM124.41 50.668C126.177 50.668 127.749 51.1592 129.909 52.2386L130.988 45.954C130.399 45.6593 130.202 45.6593 129.418 45.3646L126.964 44.677C126.178 44.4806 125.197 44.3823 124.115 44.3823C121.07 44.3823 119.303 44.4806 117.439 45.5611C116.457 46.2487 115.18 47.1328 113.804 48.7034L113.019 48.5069L106.734 52.925L107.03 50.4704H100.548L96.7202 74.0356H102.908L105.165 61.3706C105.165 61.3706 106.05 59.6013 106.442 59.0142C107.62 57.5408 108.602 57.5408 109.877 57.5408H110.37C110.164 59.0372 110.065 60.5465 110.074 62.0571C110.074 69.7157 114.394 74.5279 121.071 74.5279C122.741 74.5279 124.216 74.3315 126.473 73.7421L127.555 67.0658C125.591 68.1452 123.823 68.6363 122.349 68.6363C118.717 68.6363 116.555 65.887 116.555 61.5671C116.553 55.1844 119.794 50.668 124.41 50.668ZM176.548 45.0711L175.175 53.3191C173.702 51.0609 171.933 49.9804 169.577 49.9804C166.335 49.9804 163.293 51.8456 161.426 55.3808V55.2837L157.499 52.9262L157.892 50.4715H151.313L147.581 74.0368H153.669L155.732 61.3718C155.732 61.3718 157.303 59.6025 157.696 59.0154C158.678 57.8366 159.659 57.639 160.445 57.5419C159.758 59.5054 159.366 61.8618 159.366 64.5141C159.366 70.4057 162.408 74.3326 166.925 74.3326C169.184 74.3326 170.951 73.5468 172.62 71.6804L172.326 74.0368H178.121L182.834 45.0711H176.548ZM168.989 68.441C166.926 68.441 165.847 66.8705 165.847 63.8253C165.847 59.2095 167.81 55.872 170.656 55.872C172.816 55.872 173.898 57.5419 173.898 60.4877C173.898 65.2005 171.935 68.441 168.989 68.441ZM140.612 63.5318C140.023 63.4324 139.827 63.4324 139.434 63.4324C135.896 63.4324 134.129 64.8065 134.129 66.9676C134.129 68.441 135.014 69.4234 136.389 69.4234C139.334 69.4234 140.513 66.9676 140.612 63.5318ZM145.522 74.0368H140.12L140.317 71.5833C138.943 73.4474 137.075 74.4297 133.837 74.4297C130.792 74.4297 128.142 71.8768 128.142 67.9499C128.142 62.3541 132.362 58.9172 139.04 58.9172C139.728 58.9172 140.807 58.9172 141.692 59.0166C141.888 58.2307 141.988 57.9349 141.988 57.4448C141.988 55.8731 140.711 55.382 137.765 55.382C136.095 55.382 134.033 55.6767 132.659 56.1678L131.873 56.3643L131.48 56.4614L132.363 51.1592C135.212 50.2751 137.275 49.8833 139.532 49.8833C144.834 49.8833 147.584 52.3379 147.584 56.8543C147.584 58.0331 147.78 58.9172 147.29 61.47L146.013 69.9145L145.816 71.388L145.62 72.5668L145.523 73.3526V74.0368H145.522ZM61.173 55.4791C62.3518 55.4791 64.0206 55.5773 65.7887 55.872L66.6728 50.3733C64.9047 50.1768 62.5483 49.8821 61.173 49.8821C54.3002 49.8821 52.0421 53.6138 52.0421 57.9337C52.0421 60.7824 53.3179 62.843 56.6567 64.4135C59.1113 65.5923 59.5042 65.7876 59.5042 66.8693C59.5042 68.3405 58.2284 69.2257 55.8708 69.2257C54.0056 69.2257 52.2374 68.9299 50.2739 68.2434L49.5863 73.6427L49.6833 73.7421L50.8621 73.9385C51.2551 74.0356 51.7462 74.135 52.4338 74.2321C53.9062 74.3315 55.1832 74.4286 55.969 74.4286C62.8429 74.4286 65.6905 71.7786 65.6905 66.5735C65.6905 63.3341 64.1188 61.3707 61.0748 59.9966C58.4237 58.8166 58.129 58.6225 58.129 57.5408C58.129 56.4614 59.3078 55.4791 61.173 55.4791Z" fill="#1B3771"/>
<path fill-rule="evenodd" clip-rule="evenodd" d="M132.658 44.0888L131.576 50.3733C129.416 49.2928 127.845 48.8027 126.078 48.8027C121.462 48.8027 118.223 53.3191 118.223 59.7019C118.223 64.1211 120.383 66.7711 124.017 66.7711C125.488 66.7711 127.256 66.2811 129.22 65.2999L128.141 71.8768C125.881 72.4662 124.409 72.7621 122.739 72.7621C116.063 72.7621 111.938 67.9499 111.938 60.1942C111.938 49.8833 117.633 42.6165 125.783 42.6165C126.862 42.6165 127.844 42.7147 128.629 42.9111L131.085 43.5005C131.872 43.7952 132.069 43.8935 132.658 44.0888ZM112.822 48.4098H112.233C110.172 48.4098 108.993 49.3921 107.127 52.2385L107.716 48.6051H102.118L98.2908 72.1715H104.478C106.735 57.7372 107.325 55.2826 110.27 55.2826H110.663C111.253 52.435 112.037 50.3721 113.02 48.5069L112.822 48.4098ZM77.2772 71.8768C75.6085 72.4662 74.2332 72.6627 72.8591 72.6627C69.7169 72.6627 67.9487 70.8957 67.9487 67.4599C67.9487 66.8705 68.0469 66.0858 68.1451 65.397L68.5381 63.0406L68.8328 61.1765L71.4839 45.0711H77.5719L76.8843 48.6063H80.0266L79.2407 54.3997H76.0985L74.4297 64.2194C74.3314 64.6123 74.3314 64.9081 74.3314 65.2017C74.3314 66.3805 74.9208 66.8716 76.3931 66.8716C77.0808 66.8716 77.669 66.8716 78.0619 66.6752L77.2772 71.8768ZM53.6126 56.0684C53.6126 59.0154 54.9867 61.076 58.2272 62.6477C60.7801 63.8264 61.173 64.2182 61.173 65.2005C61.173 66.674 60.0924 67.3605 57.6378 67.3605C55.7726 67.3605 54.1026 67.0669 52.1391 66.4775L51.255 71.8768L51.5497 71.9762L52.6303 72.1727C53.0221 72.2698 53.5144 72.3691 54.2991 72.3691C55.6732 72.5656 56.8519 72.5656 57.6378 72.5656C64.1176 72.5656 67.1628 70.1098 67.1628 64.7105C67.1628 61.4689 65.887 59.6025 62.8429 58.1313C60.1918 56.9525 59.8971 56.659 59.8971 55.5784C59.8971 54.3026 60.9777 53.7132 62.9412 53.7132C64.1199 53.7132 65.7887 53.8114 67.3604 54.0079L68.2434 48.6074C66.6728 48.3127 64.2182 48.1163 62.8429 48.1163C55.969 48.1151 53.5144 51.7485 53.6126 56.0684ZM179.693 72.1727H173.898L174.194 69.9133C172.524 71.6804 170.756 72.4662 168.496 72.4662C163.98 72.4662 161.034 68.6386 161.034 62.747C161.034 54.8908 165.65 48.2134 171.049 48.2134C173.505 48.2134 175.272 49.2939 176.943 51.4538L178.317 43.2058H184.405L179.693 72.1727ZM170.658 66.674C173.506 66.674 175.47 63.3353 175.47 58.7195C175.47 55.6755 174.388 54.1038 172.228 54.1038C169.479 54.1038 167.418 57.3443 167.418 61.96C167.418 65.1035 168.498 66.674 170.658 66.674ZM96.1297 71.6804C93.9686 72.3691 92.0051 72.6627 89.7469 72.6627C82.873 72.6627 79.3378 69.0304 79.3378 62.0583C79.3378 54.0067 83.8553 48.0169 90.0416 48.0169C95.1473 48.0169 98.3867 51.3556 98.3867 56.5596C98.3867 58.3278 98.1902 59.9977 97.6008 62.4512H85.427C85.3288 62.7471 85.3288 62.9435 85.3288 63.14C85.3288 65.8893 87.1952 67.2634 90.7292 67.2634C92.9874 67.2634 94.9509 66.8705 97.112 65.7899L96.1297 71.6804ZM92.6927 57.639V56.4614C92.6927 54.4979 91.6122 53.4173 89.7469 53.4173C87.7834 53.4173 86.4082 54.8908 85.8188 57.639H92.6927ZM30.1444 72.1727H24.0564L27.5916 49.8821L19.6383 72.1727H15.4155L14.9243 50.0786L11.1938 72.1727H5.49866L10.3097 43.2058H19.1471L19.4418 61.1753L25.3322 43.2058H34.9555L30.1444 72.1727ZM45.3646 61.6653C44.7752 61.6653 44.4805 61.5683 43.9894 61.5683C40.5524 61.5683 38.7854 62.8441 38.7854 65.2005C38.7854 66.674 39.5712 67.5569 40.9453 67.5569C43.4982 67.5569 45.2664 65.2005 45.3646 61.6653ZM49.881 72.1727H44.7741L44.8723 69.7169C43.3006 71.6804 41.2389 72.5656 38.3913 72.5656C35.0526 72.5656 32.7944 70.0127 32.7944 66.1828C32.7944 60.3906 36.7214 57.0519 43.5953 57.0519C44.2829 57.0519 45.167 57.1501 46.1481 57.2472C46.3446 56.4625 46.3446 56.1678 46.3446 55.7749C46.3446 54.2043 45.2641 53.615 42.4165 53.615C40.6495 53.615 38.6848 53.8114 37.3107 54.2043L36.4267 54.499L35.8373 54.5973L36.7214 49.2951C39.7654 48.411 41.8271 48.1163 44.0864 48.1163C49.3886 48.1163 52.2362 50.4727 52.2362 54.989C52.2362 56.1678 52.138 57.0519 51.7451 59.703L50.3698 68.0504L50.1733 69.5216L50.0751 70.7004L49.9769 71.5856L49.881 72.1727ZM142.576 61.6653C141.887 61.6653 141.594 61.5683 141.202 61.5683C137.667 61.5683 135.897 62.8441 135.897 65.2005C135.897 66.674 136.783 67.5569 138.157 67.5569C140.612 67.5569 142.477 65.2005 142.576 61.6653ZM147.092 72.1727H141.987L142.084 69.7169C140.513 71.6804 138.451 72.5656 135.604 72.5656C132.265 72.5656 130.006 70.0127 130.006 66.1828C130.006 60.3906 133.933 57.0519 140.807 57.0519C141.495 57.0519 142.38 57.1501 143.262 57.2472C143.459 56.4625 143.558 56.1678 143.558 55.7749C143.558 54.2043 142.477 53.615 139.631 53.615C137.862 53.615 135.801 53.8114 134.426 54.2043L133.64 54.499L133.051 54.5973L133.934 49.2951C136.979 48.411 139.04 48.1163 141.299 48.1163C146.601 48.1163 149.351 50.4727 149.351 54.989C149.351 56.1678 149.351 57.0519 148.861 59.703L147.583 68.0504L147.387 69.5216L147.191 70.7004L147.093 71.5856L147.092 72.1727ZM163.588 48.4098H162.999C160.938 48.4098 159.76 49.3921 157.893 52.2385L158.483 48.6051H152.885L149.153 72.1715H155.241C157.5 57.7372 158.09 55.2826 161.035 55.2826H161.428C162.018 52.435 162.802 50.3721 163.785 48.5069L163.588 48.4098Z" fill="white"/>
</svg>
