<svg width="238" height="51" viewBox="0 0 238 51" fill="none" xmlns="http://www.w3.org/2000/svg">
<path d="M237.333 22.942V18.7644H232.165V12.2697L231.991 12.3235L227.136 13.8144L227.04 13.8436V18.7646H219.378V16.0232C219.378 14.7466 219.662 13.7698 220.223 13.1183C220.779 12.4747 221.575 12.1475 222.59 12.1475C223.32 12.1475 224.076 12.32 224.837 12.6604L225.027 12.7458V8.34622L224.938 8.31313C224.228 8.05714 223.263 7.92822 222.067 7.92822C220.559 7.92822 219.19 8.25752 217.995 8.91013C216.8 9.56366 215.859 10.4966 215.201 11.6828C214.544 12.8676 214.211 14.236 214.211 15.7504V18.7644H210.612V22.942H214.211V40.5416H219.378V22.942H227.04V34.1263C227.04 38.7325 229.205 41.0667 233.474 41.0667C234.175 41.0667 234.914 40.9842 235.668 40.8227C236.435 40.6568 236.958 40.4911 237.265 40.3141L237.333 40.2737V36.0575L237.123 36.1969C236.843 36.3844 236.494 36.5377 236.084 36.6517C235.673 36.7677 235.33 36.8259 235.064 36.8259C234.064 36.8259 233.324 36.5554 232.865 36.0216C232.4 35.483 232.165 34.541 232.165 33.2234V22.942H237.333ZM199.075 36.8266C197.199 36.8266 195.721 36.2025 194.679 34.9731C193.631 33.7375 193.099 31.9759 193.099 29.7377C193.099 27.4285 193.631 25.6212 194.679 24.3637C195.722 23.1146 197.186 22.4806 199.032 22.4806C200.824 22.4806 202.25 23.0861 203.272 24.2812C204.298 25.4826 204.819 27.2754 204.819 29.6115C204.819 31.9763 204.329 33.7928 203.363 35.008C202.404 36.2139 200.961 36.8266 199.075 36.8266ZM199.304 18.2397C195.727 18.2397 192.885 19.292 190.859 21.3672C188.834 23.4427 187.808 26.3149 187.808 29.9047C187.808 33.3144 188.81 36.057 190.786 38.055C192.763 40.0538 195.453 41.0663 198.781 41.0663C202.249 41.0663 205.034 39.9993 207.059 37.8953C209.084 35.7936 210.11 32.9486 210.11 29.4426C210.11 25.9796 209.148 23.2166 207.248 21.2319C205.348 19.2462 202.674 18.2397 199.304 18.2397ZM179.478 18.2397C177.044 18.2397 175.031 18.8645 173.493 20.0965C171.946 21.3357 171.161 22.9611 171.161 24.9279C171.161 25.9502 171.33 26.8584 171.664 27.6286C171.999 28.4014 172.518 29.0818 173.208 29.6529C173.892 30.2193 174.948 30.8127 176.348 31.4163C177.525 31.9023 178.402 32.3134 178.96 32.6374C179.505 32.955 179.891 33.2742 180.11 33.5851C180.322 33.8894 180.43 34.3057 180.43 34.8196C180.43 36.2826 179.338 36.9945 177.092 36.9945C176.259 36.9945 175.309 36.8199 174.268 36.4757C173.234 36.1367 172.258 35.6402 171.375 35.0036L171.161 34.8492V39.8419L171.239 39.8787C171.97 40.2174 172.892 40.503 173.978 40.7278C175.063 40.9527 176.048 41.0672 176.904 41.0672C179.544 41.0672 181.671 40.4394 183.223 39.2001C184.784 37.9523 185.576 36.2886 185.576 34.2538C185.576 32.7859 185.15 31.5271 184.31 30.5118C183.476 29.5049 182.028 28.5804 180.009 27.7633C178.401 27.1153 177.37 26.5773 176.945 26.1644C176.535 25.7655 176.327 25.2013 176.327 24.4869C176.327 23.8536 176.584 23.3462 177.111 22.9353C177.643 22.5224 178.382 22.3124 179.31 22.3124C180.171 22.3124 181.052 22.4489 181.928 22.7163C182.803 22.9838 183.572 23.3421 184.213 23.7803L184.424 23.9251V19.189L184.343 19.1541C183.751 18.8992 182.971 18.6812 182.022 18.5042C181.079 18.3284 180.222 18.2397 179.478 18.2397ZM157.692 36.8266C155.817 36.8266 154.338 36.2025 153.297 34.9731C152.248 33.7375 151.718 31.9763 151.718 29.7377C151.718 27.4285 152.249 25.6212 153.298 24.3637C154.34 23.1146 155.804 22.4806 157.651 22.4806C159.442 22.4806 160.868 23.0861 161.889 24.2812C162.916 25.4826 163.437 27.2754 163.437 29.6115C163.437 31.9763 162.947 33.7928 161.981 35.008C161.021 36.2139 159.579 36.8266 157.692 36.8266ZM157.923 18.2397C154.344 18.2397 151.502 19.292 149.477 21.3672C147.452 23.4427 146.425 26.3149 146.425 29.9047C146.425 33.3158 147.428 36.057 149.405 38.055C151.381 40.0538 154.071 41.0663 157.399 41.0663C160.867 41.0663 163.652 39.9993 165.678 37.8953C167.702 35.7936 168.729 32.9486 168.729 29.4426C168.729 25.9796 167.766 23.2166 165.866 21.2319C163.965 19.2462 161.292 18.2397 157.923 18.2397ZM138.583 22.5357V18.7644H133.479V40.5412H138.583V29.4015C138.583 27.5073 139.01 25.9511 139.855 24.7757C140.688 23.6144 141.799 23.0259 143.155 23.0259C143.615 23.0259 144.131 23.1019 144.69 23.2525C145.243 23.402 145.644 23.5645 145.88 23.7355L146.095 23.8915V18.7271L146.012 18.6915C145.537 18.4888 144.864 18.3866 144.013 18.3866C142.731 18.3866 141.583 18.8002 140.6 19.6146C139.737 20.3304 139.114 21.3118 138.637 22.5357H138.583ZM124.339 18.2397C121.998 18.2397 119.91 18.7437 118.133 19.7371C116.353 20.7328 114.977 22.1543 114.04 23.9618C113.108 25.765 112.634 27.8713 112.634 30.2202C112.634 32.2778 113.093 34.166 114.001 35.8302C114.908 37.4971 116.193 38.8012 117.819 39.7057C119.444 40.609 121.321 41.0669 123.399 41.0669C125.824 41.0669 127.895 40.5802 129.555 39.6204L129.622 39.5818V34.8887L129.408 35.0459C128.656 35.5958 127.815 36.0347 126.911 36.3509C126.009 36.6669 125.187 36.8266 124.466 36.8266C122.463 36.8266 120.855 36.1976 119.689 34.9577C118.519 33.7161 117.926 31.9726 117.926 29.7788C117.926 27.5712 118.545 25.7829 119.763 24.4635C120.978 23.1479 122.589 22.4806 124.55 22.4806C126.227 22.4806 127.862 23.0507 129.408 24.1767L129.622 24.3327V19.3878L129.553 19.3487C128.971 19.0217 128.178 18.7517 127.192 18.547C126.211 18.3427 125.251 18.2397 124.339 18.2397ZM109.119 18.7646H104.016V40.5412H109.119V18.7646ZM106.62 9.4876C105.78 9.4876 105.047 9.77461 104.445 10.3434C103.841 10.9137 103.534 11.6318 103.534 12.4793C103.534 13.3134 103.837 14.0184 104.436 14.5736C105.031 15.1272 105.766 15.4078 106.62 15.4078C107.474 15.4078 108.212 15.1272 108.814 14.5745C109.419 14.0184 109.727 13.3137 109.727 12.4793C109.727 11.6614 109.428 10.9507 108.839 10.3663C108.25 9.78311 107.503 9.4876 106.62 9.4876ZM93.886 17.1579V40.5412H99.0944V10.1542H91.8857L82.7231 32.7248L73.8313 10.1542H66.3291V40.5409H71.2236V17.1556H71.3917L80.7812 40.5412H84.4749L93.718 17.1579H93.886Z" fill="#706D6E"/>
<path d="M24.6752 24.098H0.666687V0H24.6752V24.098Z" fill="#F1511B"/>
<path d="M51.1834 24.098H27.1753V0H51.1834V24.098Z" fill="#80CC28"/>
<path d="M24.6745 50.7142H0.666687V26.6165H24.6745V50.7142Z" fill="#00ADEF"/>
<path d="M51.1834 50.7142H27.1753V26.6165H51.1834V50.7142Z" fill="#FBBC09"/>
</svg>
