<svg width="48" height="48" viewBox="0 0 48 48" fill="none" xmlns="http://www.w3.org/2000/svg">
<path d="M45 11C43.4909 11.7 41.8642 12.16 40.1788 12.38C41.9034 11.32 43.2361 9.64 43.8633 7.62C42.2366 8.62 40.4336 9.32 38.5325 9.72C36.9842 8 34.8088 7 32.3394 7C27.7337 7 23.9708 10.84 23.9708 15.58C23.9708 16.26 24.0492 16.92 24.1864 17.54C17.2094 17.18 10.9967 13.76 6.86138 8.58C6.13623 9.84 5.72467 11.32 5.72467 12.88C5.72467 15.86 7.19455 18.5 9.46797 20C8.07648 20 6.78298 19.6 5.64627 19V19.06C5.64627 23.22 8.54685 26.7 12.3881 27.48C11.1549 27.8244 9.86013 27.8723 8.60564 27.62C9.13795 29.325 10.1805 30.8168 11.5866 31.8859C12.9928 32.9549 14.6918 33.5474 16.445 33.58C13.4732 35.9809 9.78938 37.2786 5.99904 37.26C5.3327 37.26 4.66635 37.22 4 37.14C7.72371 39.58 12.153 41 16.8958 41C32.3394 41 40.8255 27.92 40.8255 16.58C40.8255 16.2 40.8255 15.84 40.8059 15.46C42.4522 14.26 43.8633 12.74 45 11Z" fill="white"/>
</svg>
