<svg width="190" height="76" viewBox="0 0 190 76" fill="none" xmlns="http://www.w3.org/2000/svg">
<path d="M0 0V5.19973H36.9831V0H0ZM42.2229 0V5.19973H94.9257C94.9257 5.19973 89.5424 0 82.4125 0H42.2229ZM105.264 0V5.19973H137.149L135.256 0H105.264ZM160.008 0L158.116 5.19973H189.71V0H160.008ZM0 10.1122V15.3119H36.9831V10.1122H0ZM42.2229 10.1196V15.3121H101.041C101.041 15.3121 100.354 11.3101 99.1561 10.1196H42.2229ZM105.264 10.1196V15.3121H140.644L138.893 10.1196H105.264ZM156.223 10.1196L154.471 15.3121H189.71V10.1196H156.223ZM10.628 20.2244V25.4315H26.6445V20.2244H10.628ZM52.8512 20.2244V25.4315H68.8676V20.2244H52.8512ZM84.4461 20.2244V25.4315H100.462C100.462 25.4315 101.479 22.6816 101.479 20.2244H84.4461ZM115.893 20.2244V25.4315H144.289L142.396 20.2244H115.893ZM152.735 20.2244L150.835 25.4315H179.372V20.2244H152.735ZM10.628 30.3441V35.5439H26.6445V30.3441H10.628ZM52.8512 30.3441V35.5439H93.7604C93.7604 35.5439 97.1827 32.8759 98.2729 30.3441H52.8512ZM115.893 30.3441V35.5439H131.909V32.6494L132.926 35.5439H162.265L163.356 32.6494V35.5439H179.372V30.3441H149.306L147.71 34.7483L146.107 30.3441H115.893ZM10.628 40.4563V45.656H26.6445V40.4563H10.628ZM52.8512 40.4563V45.656H98.2729C97.1825 43.1327 93.7604 40.4563 93.7604 40.4563H52.8512ZM115.893 40.4563V45.656H131.909V40.4563H115.893ZM134.818 40.4563L136.755 45.656H158.754L160.594 40.4563H134.818ZM163.355 40.4563V45.656H179.372V40.4563H163.355ZM10.628 50.5685V55.768H26.6445V50.5685H10.628ZM52.8512 50.5685V55.768H68.8676V50.5685H52.8512ZM84.4461 50.5685V55.768H101.479C101.479 53.3142 100.462 50.5685 100.462 50.5685H84.4461ZM115.893 50.5685V55.768H131.909V50.5685H115.893ZM138.455 50.5685L140.333 55.768H155.08L156.973 50.5685H138.455ZM163.355 50.5685V55.768H179.372V50.5685H163.355ZM0.28937 60.6807V65.8878H37.2725V60.6807H0.28937ZM42.2229 60.6807V65.8878H99.1561C100.354 64.6956 101.041 60.6807 101.041 60.6807H42.2229ZM105.554 60.6807V65.8878H131.909V60.6807H105.554ZM142.099 60.6807L144.029 65.8878H151.532L153.343 60.6807H142.099ZM163.355 60.6807V65.8878H190V60.6807H163.355ZM0.28937 70.8003V76H37.2725V70.8003H0.28937ZM42.2229 70.8003V75.9926H82.4125C89.5424 75.9926 94.9257 70.8003 94.9257 70.8003H42.2229ZM105.554 70.8003V76H131.909V70.8003H105.554ZM145.758 70.8003L147.614 75.9854L147.933 75.9926L149.818 70.8003H145.758ZM163.355 70.8003V76H190V70.8003H163.355Z" fill="#1F70C1"/>
</svg>
