<svg width="48" height="48" viewBox="0 0 48 48" fill="none" xmlns="http://www.w3.org/2000/svg">
<path d="M45.5181 33.2C45.4651 33.0956 45.4157 33.009 45.3698 32.9396C44.6108 31.6897 43.1602 30.1555 41.0191 28.3366L40.9738 28.295L40.9512 28.2746L40.9283 28.2536H40.9053C39.9335 27.4067 39.3182 26.8372 39.0605 26.5456C38.5889 25.9902 38.4833 25.428 38.741 24.8584C38.9231 24.428 39.607 23.5191 40.7911 22.1305C41.414 21.3945 41.9073 20.8047 42.2716 20.3603C44.899 17.1668 46.038 15.1261 45.6886 14.2374L45.5529 14.0297C45.4617 13.9047 45.2263 13.7903 44.8471 13.686C44.467 13.5819 43.9812 13.5647 43.3888 13.634L36.8287 13.6755C36.7224 13.641 36.5707 13.6443 36.373 13.686C36.1755 13.7277 36.0767 13.7486 36.0767 13.7486L35.9625 13.8008L35.8719 13.8635C35.796 13.9049 35.7124 13.9778 35.6212 14.0819C35.5305 14.1857 35.4546 14.3075 35.394 14.4464C34.6798 16.1264 33.8677 17.6883 32.9564 19.1322C32.3945 19.9932 31.8784 20.7393 31.4071 21.3711C30.9365 22.0027 30.5416 22.468 30.223 22.7663C29.9039 23.0648 29.6158 23.304 29.3572 23.4847C29.0989 23.6655 28.9018 23.7418 28.7653 23.7139C28.6284 23.6859 28.4996 23.6582 28.3776 23.6305C28.1651 23.5055 27.9942 23.3354 27.8654 23.1203C27.736 22.9051 27.6488 22.6342 27.6033 22.3079C27.558 21.9814 27.5312 21.7006 27.5235 21.4645C27.5164 21.2286 27.5197 20.8951 27.5351 20.4647C27.5509 20.0341 27.558 19.7428 27.558 19.59C27.558 19.0623 27.5692 18.4896 27.5918 17.8718C27.6148 17.2539 27.6334 16.7644 27.6489 16.4038C27.6644 16.0428 27.6716 15.6608 27.6716 15.2582C27.6716 14.8555 27.6448 14.5397 27.5918 14.3105C27.5395 14.0816 27.4591 13.8594 27.3533 13.644C27.2467 13.4289 27.0908 13.2624 26.8863 13.1442C26.6813 13.0262 26.4265 12.9325 26.1232 12.8629C25.3183 12.6964 24.2933 12.6063 23.0478 12.5923C20.2234 12.5646 18.4085 12.7314 17.6037 13.0924C17.2848 13.2449 16.9962 13.4533 16.7382 13.7169C16.4648 14.0225 16.4266 14.1892 16.624 14.2167C17.5353 14.3415 18.1804 14.64 18.5601 15.1121L18.697 15.3622C18.8034 15.5427 18.9097 15.8622 19.016 16.3202C19.1222 16.7783 19.1907 17.2851 19.2209 17.8402C19.2967 18.8539 19.2967 19.7217 19.2209 20.4435C19.1449 21.1657 19.0731 21.7279 19.0045 22.1305C18.936 22.5332 18.8336 22.8595 18.697 23.1093C18.5601 23.3592 18.4691 23.512 18.4235 23.5674C18.3779 23.6229 18.3399 23.6578 18.3098 23.6715C18.1124 23.7407 17.9071 23.7759 17.6946 23.7759C17.4819 23.7759 17.2238 23.6786 16.9202 23.4841C16.6166 23.2896 16.3015 23.0225 15.975 22.6823C15.6484 22.342 15.2801 21.8665 14.87 21.2556C14.4601 20.6448 14.0349 19.9229 13.5945 19.0898L13.2301 18.4857C13.0023 18.097 12.6912 17.5311 12.2963 16.7885C11.9012 16.0455 11.552 15.3269 11.2484 14.6327C11.1271 14.3411 10.9448 14.1191 10.7018 13.9664L10.5878 13.9037C10.512 13.8483 10.3904 13.7894 10.2235 13.7267C10.0563 13.664 9.88191 13.6191 9.69952 13.5914L3.45813 13.6329C2.82034 13.6329 2.38759 13.765 2.15973 14.0288L2.06853 14.1536C2.02298 14.2232 2 14.3342 2 14.487C2 14.6397 2.04556 14.8272 2.13675 15.0492C3.04788 17.007 4.03871 18.8952 5.10925 20.714C6.17979 22.5328 7.11006 23.9979 7.89952 25.108C8.68914 26.2189 9.494 27.2673 10.3141 28.2528C11.1342 29.2387 11.677 29.8704 11.9426 30.148C12.2086 30.4261 12.4174 30.634 12.5693 30.7728L13.1388 31.2725C13.5033 31.6058 14.0385 32.005 14.7446 32.47C15.451 32.9353 16.2329 33.3934 17.0909 33.845C17.9491 34.2959 18.9474 34.6638 20.0865 34.9484C21.2254 35.2332 22.3339 35.3475 23.4122 35.2924H26.0318C26.5631 35.2504 26.9656 35.0977 27.2392 34.8341L27.3298 34.7297C27.3907 34.6468 27.4478 34.5181 27.5005 34.3448C27.5537 34.1713 27.5802 33.9801 27.5802 33.7721C27.5647 33.1752 27.6144 32.6373 27.728 32.1583C27.8415 31.6795 27.9709 31.3185 28.1157 31.0754C28.2603 30.8324 28.4235 30.6275 28.6052 30.4613C28.7873 30.2948 28.917 30.1939 28.9931 30.1592C29.0688 30.1242 29.1292 30.1005 29.1747 30.0863C29.5392 29.9753 29.9681 30.0828 30.4621 30.4094C30.9557 30.7356 31.4187 31.1385 31.8518 31.6173C32.2846 32.0966 32.8046 32.6343 33.4119 33.2312C34.0197 33.8283 34.551 34.2722 35.0064 34.5642L35.4618 34.8141C35.766 34.9808 36.1608 35.1336 36.6469 35.2724C37.132 35.4111 37.5571 35.4459 37.9221 35.3765L43.7533 35.2933C44.33 35.2933 44.7788 35.206 45.0971 35.0328C45.4161 34.8592 45.6056 34.668 45.6667 34.4601C45.7277 34.2519 45.7309 34.0157 45.6783 33.7516C45.6243 33.4882 45.571 33.304 45.5181 33.2Z" fill="white"/>
</svg>
